<svg width="838" height="399" xmlns="http://www.w3.org/2000/svg">
 <metadata id="metadata8">image/svg+xml</metadata>

 <g>
  <title>background</title>
  <rect fill="none" id="canvas_background" height="401" width="840" y="-1" x="-1"/>
 </g>
 <g>
  <title>Layer 1</title>
  <g id="svg_1">
   <path fill="#FFFFFF" fill-rule="nonzero" d="m428.654662,145.941341c-6.041333,0 -11.609333,-0.593333 -16.701333,-1.784c-5.096,-1.185333 -9.509333,-3.130667 -13.232,-5.836c-3.730667,-2.701333 -6.668,-6.373333 -8.818667,-11.024c-2.154667,-4.646667 -3.305333,-10.426667 -3.458667,-17.346666c-0.144,-6.484 0.884,-13.456 3.093333,-20.913333c2.205333,-7.458667 5.058667,-14.86 8.565333,-22.210666c3.501333,-7.346667 7.392,-14.266667 11.670667,-20.750666c4.274667,-6.485333 8.412,-11.997333 12.410667,-16.537333c7.356,-8.642667 15.516,-15.182667 24.474666,-19.617333c8.961333,-4.426667 19.152,-6.645333 30.586666,-6.645333c6.254667,0 11.985333,0.704 17.196,2.106667c5.205333,1.409333 9.673333,3.568 13.406667,6.485333c3.729333,2.918667 6.726667,6.702667 8.986667,11.348c2.257333,4.650667 3.465333,10.325333 3.613333,17.022666c0.184,8.282667 -0.910667,16.758666 -3.270667,25.422666c-0.237333,-0.249333 -0.56,-0.454667 -0.962667,-0.614667c-5.441333,0 -11.586667,0.537333 -18.441333,1.606667c-6.854667,1.073333 -12.566667,2.464 -17.136,4.176c-1.090667,0.432 -2.121333,0.913333 -3.1,1.445333c-0.981333,0.537333 -1.689333,1.34 -2.122667,2.409333c-4.136,6.854667 -8.705333,14.725333 -13.708,23.608c-4.137333,7.344 -8.312,14.84 -12.518667,22.473333c-0.449333,-1.404 -1.077333,-2.869333 -1.885333,-4.396c-1.090667,-2.045333 -2.561333,-4.306667 -4.408,-6.785333c-1.849333,-2.474667 -4.190667,-5.544 -7.016,-9.209333c-3.704,-4.734667 -7.073333,-9.905333 -10.118667,-15.509333c-3.049333,-5.598667 -4.569333,-11.632 -4.569333,-18.093333c0,-8.402667 2.717333,-15.130667 8.16,-20.194666c5.436,-5.058667 12.510667,-7.593333 21.214666,-7.593333c8.268,0 14.305333,1.726667 18.114666,5.169333c3.806667,3.448 5.713333,7.109333 5.713333,10.985333c0,1.938667 -0.326667,3.554667 -0.978667,4.848c0.652,1.08 1.413333,1.402667 2.285333,0.968c0.652,-2.368 1.574667,-5.276 2.773333,-8.722667c1.193333,-3.444 2.229333,-6.246667 3.1,-8.401333c0,-1.504 -0.544,-3.014667 -1.632,-4.524c-2.610667,-2.797333 -5.548,-4.685333 -8.813333,-5.654667c-3.262667,-0.969333 -6.638667,-1.454667 -10.117333,-1.454667c-5.221333,0 -9.954667,0.646667 -14.196,1.938667c-4.245333,1.293333 -7.948,2.802667 -11.1,4.524c-3.157333,1.728 -5.874667,3.610667 -8.158667,5.653333c-2.285333,2.050667 -4.08,3.828 -5.386667,5.332c-3.701333,4.312 -6.802667,9.264 -9.301333,14.864c-2.504,5.604 -3.754667,11.202667 -3.754667,16.802666c0,5.602667 1.144,10.554667 3.428,14.862667c2.285333,4.310667 5.6,9.264 9.956,14.862667c5.002667,6.250667 8.373333,11.258667 10.116,15.025333c1.74,3.770667 2.612,7.486667 2.612,11.146667c0,3.004 -0.388,5.837333 -1.130667,8.516c-1.797333,0.138667 -3.609333,0.216 -5.44,0.216zm65.210666,-35.504c-8.404,10.269333 -18.188,18.754666 -29.362666,25.453333c-3.988,2.392 -8.077333,4.349333 -12.264,5.886667c1.202667,-2.078667 2.405333,-4.158667 3.593333,-6.224c3.264,-5.670667 6.365333,-11.025333 9.301333,-16.06c2.937333,-5.029333 5.493333,-9.365333 7.670667,-13.009333c2.392,-4.281333 5.110667,-8.722667 8.16,-13.330667c3.044,-4.601333 5.981333,-8.833333 8.813333,-12.688c2.390667,-2.996 4.674667,-5.781333 6.853333,-8.350667c2.172,-2.570667 5.329333,-3.856 9.465333,-3.856c2.393333,0 4.406667,0.110667 6.038667,0.321333c1.449333,0.192 2.761333,0.472 3.953333,0.829333c-0.724,2.314667 -1.534667,4.641333 -2.437333,6.981333c-4.794667,12.433333 -11.390667,23.781333 -19.785333,34.046666zm-90.257332,90.802666c5.876,-3.210667 11.474667,-7.225333 16.809333,-12.044c5.329333,-4.817333 10.608,-11.508 15.830667,-20.076c3.044,-5.14 6.252,-10.6 9.628,-16.381333c1.086667,-1.866667 2.162667,-3.717333 3.238667,-5.572c7.672,-1.485333 15.150667,-3.944 22.432,-7.386667c12.805333,-6.048 24.002666,-14.048 33.598666,-23.993333c9.589333,-9.94 17.262666,-21.288 23.021333,-34.045333c5.753333,-12.752 8.589333,-25.826666 8.509333,-39.232c0.029333,-8.212 -1.842667,-14.966667 -5.626667,-20.266666c-3.788,-5.293333 -8.572,-9.508 -14.354667,-12.644c-5.786667,-3.132 -12.2,-5.350667 -19.236,-6.648c-7.04,-1.296 -13.902667,-1.945333 -20.585333,-1.945333c-12.294667,0 -24.221333,1.945333 -35.781333,5.836c-11.56,3.892 -21.886666,10.052 -30.972,18.482666c-4.650667,4.326667 -9.382667,9.726667 -14.197333,16.212c-4.82,6.484 -9.084,13.405333 -12.804,20.750666c-3.718667,7.350667 -6.736,14.865333 -9.042667,22.536c-2.310667,7.674667 -3.386667,14.970667 -3.233333,21.885333c0.182667,8.217333 1.896,15.026667 5.145333,20.426666c3.244,5.405333 7.545333,9.728 12.905333,12.970667c5.354667,3.241333 11.658667,5.512 18.914666,6.809333c7.253333,1.296 15.086667,1.945333 23.498666,1.945333c0.574667,0 1.145333,-0.013333 1.717333,-0.022667c-1.154667,2.836 -2.742667,5.484 -4.816,7.92c-4.681333,5.493333 -10.393333,9.749333 -17.136,12.764c-3.264,1.509333 -6.909333,2.64 -10.933333,3.392c-4.029333,0.757333 -7.997333,1.130667 -11.914667,1.130667c-10.444,0 -18.169333,-2.312 -23.173333,-6.946667c-5.008,-4.629333 -7.506667,-9.961333 -7.506667,-15.994667c0,-1.937333 0.326667,-3.876 0.98,-5.816c0,-1.074667 -0.328,-1.614667 -0.98,-1.614667c-0.653333,0 -0.98,0.217333 -0.98,0.645333c-0.870667,3.02 -1.906667,6.841333 -3.1,11.472c-1.198667,4.634667 -2.233333,8.778667 -3.101333,12.438667c0.214667,0.646667 0.76,1.242667 1.633333,1.777333c0.866667,0.54 1.845333,1.130667 2.937333,1.777333c4.130667,1.938667 8.649333,3.337333 13.545333,4.2c4.894667,0.858667 9.842667,1.293333 14.850667,1.293333c11.964,0 22.846666,-2.156 32.638666,-6.462667c2.356,-1.036 4.729333,-2.290667 7.122667,-3.754667c-2.198667,3.732 -4.341333,7.316 -6.426667,10.734667c-4.569333,7.498667 -8.436,13.118667 -11.586667,16.862666c-3.157333,3.749333 -6.477333,6.696 -9.954667,8.833333c-2.178667,1.285333 -4.789333,2.144 -7.834667,2.570667c-3.049333,0.432 -6.526667,0.642667 -10.444,0.642667c-1.744,0 -2.612,0.641333 -2.612,1.926667c0,0.644 0.326667,1.334667 0.98,2.089333c0.652,0.746667 1.412,1.229333 2.285333,1.444c2.825333,-0.857333 6.088,-1.66 9.790667,-2.408c3.697333,-0.749333 8.486667,-1.445333 14.361333,-2.089333c5.876,-0.641333 13.108,-1.173333 21.705333,-1.605333c8.593333,-0.426667 19.201333,-0.642667 31.824,-0.642667c3.697333,0 7.614667,0.056 11.750667,0.16c4.130667,0.112 8.373333,0.322667 12.729333,0.644c4.349333,0.321333 8.592,0.802667 12.730667,1.444c4.128,0.644 7.833333,1.608 11.096,2.892c1.305333,0.426667 2.121333,1.174667 2.448,2.249333c0.326667,1.068 0.489333,2.138667 0.489333,3.212c0,0.852 0.214667,1.284 0.653333,1.284c0.866667,-1.716 1.794667,-4.126667 2.773333,-7.226667c0.98,-3.104 1.469333,-5.189333 1.469333,-6.264c0,-2.138667 -1.745333,-3.64 -5.222667,-4.497333c-0.872,-0.210667 -2.177333,-0.372 -3.917333,-0.482667c-1.742667,-0.105333 -3.589333,-0.210667 -5.548,-0.321333c-1.958667,-0.105333 -3.916,-0.161333 -5.874667,-0.161333l-4.244,0c-2.610667,0 -7.178667,0.216 -13.708,0.644c-6.528,0.430667 -13.870667,0.912 -22.030666,1.446667c-8.161333,0.536 -16.484,1.122667 -24.970666,1.765333c-8.486667,0.641333 -15.778667,1.284 -21.868,1.928c-1.958667,0 -2.829333,-0.321333 -2.610667,-0.964c0.214667,-0.642667 0.978667,-1.284 2.284,-1.929333" id="path14"/>
   <path fill="#FFFFFF" fill-rule="nonzero" d="m32.968266,272.986673c-1.072933,-0.66 -3.0756,-1.452 -5.7932,-1.452c-1.215733,0 -2.359467,0.132 -3.503733,0.462667c-6.650533,2.045333 -7.652,8.777333 -7.652,12.869333c0,9.768 5.149467,12.936 11.155733,12.936c9.010933,0 10.9416,-8.316 10.9416,-13.2c0,-6.072 -1.788,-9.569333 -5.1484,-11.616zm17.878133,24.42c-3.7188,6.534667 -11.0844,12.209333 -23.885466,12.209333c-16.948426,0 -23.670826,-9.437333 -25.888016,-17.225333c-1.072396,-3.629333 -1.072396,-6.468 -1.072396,-7.853333c0,-5.214667 1.501559,-8.977333 2.502599,-11.089333c5.006253,-10.558667 15.661413,-13.661333 25.244213,-13.661333c3.790133,0 8.224,0.594667 12.157333,2.244c6.936533,2.970667 14.302667,10.296 14.302667,22.44c0,6.138667 -1.9308,10.362667 -3.360933,12.936" id="path16"/>
   <path fill="#FFFFFF" fill-rule="nonzero" d="m91.044266,277.14534c0,-5.610667 -4.7916,-5.874667 -6.579733,-5.874667l-9.0104,0l0,11.88l9.082267,0c1.573467,0 2.431867,-0.198667 3.1464,-0.528c3.218267,-1.452 3.361467,-4.554667 3.361467,-5.345333l0,-0.132zm15.875467,-0.397333c0,5.082667 -1.644267,8.185333 -3.5036,10.362667c-1.9312,2.376 -4.2192,3.893333 -6.722933,4.752c-3.003067,0.989333 -6.006267,1.056 -8.938533,1.056l-12.300533,0l0,15.18l-16.018667,0l0,-46.594666l28.819733,0c2.931733,0 6.936933,0.197333 9.8688,1.385333c8.438533,3.432 8.795733,11.417333 8.795733,13.462667l0,0.396" id="path18"/>
   <path fill="#FFFFFF" fill-rule="nonzero" d="m139.082665,272.986673l0,35.112l-15.9472,0l0,-35.112l-12.8724,0l0,-11.482667l41.620933,0l0,11.482667l-12.801333,0" id="path20"/>
   <path fill="#FFFFFF" fill-rule="nonzero" d="m157.083998,308.098673l0,-46.594666l16.018667,0l0,46.594666l-16.018667,0" id="path22"/>
   <path fill="#FFFFFF" fill-rule="nonzero" d="m214.297331,308.098673l-11.156,-18.612l-7.509333,7.589333l0,11.022667l-15.946667,0l0,-46.594666l15.946667,0l0,17.62l15.876,-17.62l19.452,0l-17.521333,17.686666l18.808,28.908l-17.949333,0" id="path24"/>
   <path fill="#FFFFFF" fill-rule="nonzero" d="m234.971998,308.098673l0,-46.594666l39.974666,0l0,10.228l-23.956,0l0,6.930667l22.384,0l0,10.098667l-22.456,0l0,9.24l26.174666,0l0,10.097333l-42.121333,0" id="path26"/>
   <path fill="#FFFFFF" fill-rule="nonzero" d="m303.84533,271.270673l-6.508,0l0,10.824l7.437333,0c2.002667,0 6.936,-0.396 6.936,-5.478667c0,-4.884 -4.218667,-5.345333 -7.865333,-5.345333zm7.937333,36.828l-9.797333,-16.433333l-4.648,0l0,16.433333l-16.018667,0l0,-46.594666l27.245333,0c5.506667,0 12.944,0.197333 17.02,6.996c0.930667,1.516 2.074667,4.224 2.074667,7.918667c0,5.544 -2.789333,8.976 -5.864,10.956c-1.288,0.792 -3.218667,1.518667 -4.505333,1.913333l12.372,18.810666l-17.878666,0" id="path28"/>
   <path fill="#FFFFFF" fill-rule="nonzero" d="m379.274663,309.484006c-6.937333,0 -15.233333,-1.056 -21.741333,-6.336c-1.858667,-1.517333 -2.573333,-2.441333 -3.932,-3.96l12.228,-7.193333c1.216,1.649333 1.430667,2.046667 2.504,2.902667c3.002667,2.442667 8.581333,3.234667 11.584,3.234667c4.005333,0 7.652,-1.056 7.652,-3.564c0,-1.385333 -1.144,-2.045333 -1.788,-2.441333c-1.858667,-1.122667 -7.794667,-1.517333 -13.729333,-2.904c-3.146667,-0.725333 -14.232,-2.904 -14.232,-13.662667c0,-8.182667 6.793333,-15.574667 22.312,-15.574667c0.072,0 0.144,0 0.214667,0c2.002667,0 11.585333,0.066667 18.737333,5.016c1.858667,1.32 3.217333,2.705333 3.789333,3.233333l-10.084,7.721333c-0.786667,-0.989333 -1.214667,-1.32 -1.788,-1.781333c-2.001333,-1.584 -5.934667,-2.969333 -11.441333,-2.969333c-3.074667,0 -5.721333,0.857333 -5.792,2.969333l0,0.065333c0,1.122667 0.857333,1.716 1.286667,2.112c1.501333,1.122667 7.365333,1.518667 12.729333,2.708c7.794667,1.649333 15.376,4.421333 15.376,14.056c0,8.58 -7.294667,16.368 -23.885333,16.368" id="path30"/>
   <path fill="#FFFFFF" fill-rule="nonzero" d="m437.134662,256.804007l0,-7.854667l11.870667,0l0,7.854667l-11.870667,0zm3.076,16.182667c-1.073333,-0.66 -3.076,-1.452 -5.793333,-1.452c-1.214667,0 -2.36,0.132 -3.504,0.462667c-6.650667,2.045333 -7.652,8.777333 -7.652,12.869333c0,9.768 5.149333,12.936 11.156,12.936c9.010667,0 10.941333,-8.316 10.941333,-13.2c0,-6.072 -1.788,-9.569333 -5.148,-11.616zm-19.452,-16.182667l0,-7.854667l11.798667,0l0,7.854667l-11.798667,0zm37.329333,40.602666c-3.718667,6.534667 -11.085333,12.209333 -23.885333,12.209333c-16.948,0 -23.670666,-9.437333 -25.888,-17.225333c-1.072,-3.629333 -1.072,-6.468 -1.072,-7.853333c0,-5.214667 1.501333,-8.977333 2.502667,-11.089333c5.006667,-10.558667 15.661333,-13.661333 25.245333,-13.661333c3.788,0 8.224,0.594667 12.156,2.244c6.937333,2.970667 14.302667,10.296 14.302667,22.44c0,6.138667 -1.930667,10.362667 -3.361333,12.936" id="path32"/>
   <path fill="#FFFFFF" fill-rule="nonzero" d="m489.205328,271.270673l-6.508,0l0,10.824l7.437333,0c2.002667,0 6.936,-0.396 6.936,-5.478667c0,-4.884 -4.218667,-5.345333 -7.865333,-5.345333zm7.937333,36.828l-9.797333,-16.433333l-4.648,0l0,16.433333l-16.02,0l0,-46.594666l27.248,0c5.506667,0 12.944,0.197333 17.018666,6.996c0.930667,1.516 2.074667,4.224 2.074667,7.918667c0,5.544 -2.789333,8.976 -5.864,10.956c-1.286667,0.792 -3.217333,1.518667 -4.505333,1.913333l12.372,18.810666l-17.878666,0" id="path34"/>
   <path fill="#FFFFFF" fill-rule="nonzero" d="m521.197328,308.098673l0,-46.594666l39.976,0l0,10.228l-23.956,0l0,6.930667l22.382666,0l0,10.098667l-22.454666,0l0,9.24l26.173333,0l0,10.097333l-42.121333,0" id="path36"/>
   <path fill="#FFFFFF" fill-rule="nonzero" d="m600.414661,308.098673l-10.154667,-16.104c-2.789333,-4.422667 -4.577333,-7.657333 -7.008,-12.276c0.285333,3.498667 0.5,6.006667 0.5,9.504l0,18.876l-14.874667,0l0,-46.594666l16.949333,0l11.298667,17.62c2.646667,4.093333 4.148,7.128 6.221333,11.418667c-0.429333,-3.96 -0.644,-6.732 -0.644,-10.758667l0,-18.28l14.946667,0l0,46.594666l-17.234666,0" id="path38"/>
   <path fill="#FFFFFF" fill-rule="nonzero" d="m642.619994,308.098673l0,-46.594666l15.948,0l0,34.846666l19.524,0l0,11.748l-35.472,0" id="path40"/>
   <path fill="#FFFFFF" fill-rule="nonzero" d="m726.413326,297.20934c-3.718667,9.504 -13.945333,12.142667 -21.454666,12.142667c-6.792,0 -18.592,-1.913333 -22.096,-11.616c-1.001333,-2.638667 -1.144,-5.873333 -1.144,-8.578667l0,-27.653333l16.017333,0l0,29.369333c0,1.781333 0.214667,7.061333 6.794667,7.061333c7.08,0 7.150667,-5.346667 7.150667,-7.194667l0,-29.236l16.092,0l0,27.916c0,2.509333 -0.358667,5.28 -1.36,7.789333" id="path42"/>
   <path fill="#FFFFFF" fill-rule="nonzero" d="m765.466659,308.098673l-10.154667,-16.104c-2.789333,-4.422667 -4.577333,-7.657333 -7.008,-12.276c0.285333,3.498667 0.5,6.006667 0.5,9.504l0,18.876l-14.874667,0l0,-46.594666l16.949333,0l11.298667,17.62c2.646667,4.093333 4.148,7.128 6.221333,11.418667c-0.429333,-3.96 -0.644,-6.732 -0.644,-10.758667l0,-18.28l14.946667,0l0,46.594666l-17.234666,0" id="path44"/>
   <path fill="#FFFFFF" fill-rule="nonzero" d="m817.105325,273.646673c-1.932,-1.188 -4.936,-1.253333 -5.650667,-1.253333l-6.149333,0l0,25.013333l6.078667,0c1.573333,0 3.289333,-0.197333 4.862667,-0.990667c4.864,-2.441333 5.578667,-8.448 5.578667,-11.616c0,-2.837333 -0.644,-8.645333 -4.72,-11.153333zm6.722667,33.197333c-3.718667,1.188 -8.081333,1.254667 -11.8,1.254667l-22.742666,0l0,-46.594666l18.308,0c5.293333,0 12.658667,0.064 17.52,1.913333c12.373333,4.685333 12.801333,17.688 12.801333,20.261333l0,1.385333c0,3.762667 -0.858667,17.622666 -14.086667,21.78" id="path46"/>
   <path fill="#FFFFFF" fill-rule="nonzero" d="m309.92133,352.958673c0,-0.990667 -0.161333,-1.830667 -0.48,-2.517333c-0.321333,-0.689333 -0.753333,-1.249333 -1.296,-1.68c-0.544,-0.432 -1.2,-0.752 -1.968,-0.96c-0.768,-0.208 -1.614667,-0.310667 -2.541333,-0.310667c-1.697333,0 -3.216,0.328 -4.558667,0.981333c-1.344,0.656 -2.576,1.625333 -3.694667,2.905333c-0.608,0.672 -1.24,1.488 -1.894667,2.446667c-0.656,0.958667 -1.256,1.982667 -1.8,3.069333c-0.545333,1.089333 -0.993333,2.184 -1.345333,3.285333c-0.350667,1.104 -0.526667,2.137333 -0.526667,3.098667c0,1.022667 0.152,1.876 0.456,2.564c0.304,0.688 0.726667,1.232 1.272,1.632c0.542667,0.4 1.190667,0.689333 1.944,0.864c0.749333,0.176 1.573333,0.264 2.469333,0.264c1.888,0 3.670667,-0.494667 5.350667,-1.488c1.68,-0.990667 3.158667,-2.245333 4.438667,-3.765333c1.278667,-1.518667 2.293333,-3.198667 3.046667,-5.038667c0.750667,-1.84 1.128,-3.624 1.128,-5.350667zm2.398667,0.336c-0.032,1.985333 -0.496,3.92 -1.392,5.806667c-0.896,1.888 -2.070667,3.568 -3.526667,5.037333c-1.456,1.472 -3.142667,2.656 -5.061333,3.550667c-1.92,0.896 -3.92,1.344 -5.998667,1.344c-1.246667,0 -2.406667,-0.096 -3.478667,-0.288c-1.072,-0.193333 -1.998667,-0.526667 -2.781333,-1.008c-0.785333,-0.48 -1.409333,-1.12 -1.872,-1.92c-0.464,-0.798667 -0.696,-1.806667 -0.696,-3.021333c0,-1.021333 0.184,-2.102667 0.550667,-3.237333c0.368,-1.136 0.84,-2.248 1.416,-3.334667c0.576,-1.088 1.232,-2.113333 1.968,-3.073333c0.736,-0.96 1.456,-1.757333 2.16,-2.4c1.373333,-1.246667 2.925333,-2.157333 4.653333,-2.734667c1.728,-0.573333 3.502667,-0.862667 5.325333,-0.862667c0.992,0 2.008,0.097333 3.048,0.289333c1.037333,0.189333 1.982667,0.52 2.829333,0.982667c0.848,0.464 1.544,1.088 2.088,1.870667c0.542667,0.784 0.8,1.784 0.768,2.998667" id="path48"/>
   <path fill="#FFFFFF" fill-rule="nonzero" d="m319.61333,359.820006c0,-0.128 -0.024,-0.288 -0.072,-0.481333c-0.048,-0.189333 -0.216,-0.285333 -0.505333,-0.285333c-0.158667,0 -0.390667,0.088 -0.694667,0.264c-0.304,0.177333 -0.646667,0.416 -1.032,0.721333c-0.384,0.301333 -0.784,0.677333 -1.198667,1.125333c-0.416,0.449333 -0.816,0.944 -1.2,1.488c-0.544,0.765333 -1.073333,1.590667 -1.582667,2.470667c-0.513333,0.881333 -1.024,1.784 -1.536,2.710667c1.056,-0.286667 2.054667,-0.766667 2.998667,-1.44c0.942667,-0.670667 1.774667,-1.405333 2.494667,-2.205333c0.72,-0.8 1.288,-1.6 1.704,-2.4c0.416,-0.798667 0.624,-1.453333 0.624,-1.968zm6.717333,1.248c-1.696,2.145333 -3.510667,3.736 -5.446667,4.773333c-1.934667,1.041333 -3.958667,1.8 -6.069333,2.28c-0.736,0.161333 -1.374667,0.289333 -1.918667,0.382667c-0.544,0.097333 -1.088,0.193333 -1.632,0.288c-0.928,1.568 -1.808,3.126667 -2.638667,4.678667c-0.832,1.552 -1.662667,3.094667 -2.494667,4.632c-1.216,2.269333 -2.318667,4.414667 -3.312,6.429333c-0.990667,2.016 -2.062667,4.013333 -3.214667,5.998667c-0.222667,0.381333 -0.526667,0.677333 -0.910667,0.885333c-0.385333,0.208 -0.832,0.393333 -1.344,0.550667c-0.512,0.162667 -1.104,0.321333 -1.774667,0.481333c-0.673333,0.161333 -1.408,0.385333 -2.208,0.672c-0.192,0.096 -0.302667,0.072 -0.336,-0.072c-0.030667,-0.142667 0.048,-0.248 0.24,-0.312c0.832,-0.32 1.536,-0.630667 2.112,-0.936c0.574667,-0.305333 1.094667,-0.664 1.558667,-1.078667c0.465333,-0.416 0.904,-0.910667 1.32,-1.489333c0.416,-0.573333 0.896,-1.294667 1.438667,-2.158667c0.544,-0.896 1.208,-2.008 1.992,-3.334667c0.784,-1.328 1.656,-2.790667 2.614667,-4.389333c0.96,-1.598667 1.968,-3.302667 3.024,-5.109333c1.054667,-1.808 2.125333,-3.624 3.213333,-5.448c-0.192,-0.064 -0.288,-0.24 -0.288,-0.525333c0,-0.194667 0.104,-0.305333 0.313333,-0.336c0.206667,-0.033333 0.374667,-0.064 0.502667,-0.097333l2.206667,-3.597333c1.024,-1.665333 2.048,-3.392 3.072,-5.182667c1.022667,-1.792 2.077333,-3.390667 3.166667,-4.798667c0.128,-0.129333 0.302667,-0.222667 0.528,-0.288c0.064,-0.029333 0.192,-0.064 0.382667,-0.096c0.193333,-0.032 0.384,-0.064 0.576,-0.094667c0.192,-0.033333 0.368,-0.057333 0.528,-0.072c0.16,-0.018667 0.256,-0.024 0.288,-0.024c0.097333,0 0.144,0.032 0.144,0.096c0,0.094667 -0.064,0.208 -0.192,0.334667c-0.670667,0.609333 -1.264,1.192 -1.774667,1.752c-0.512,0.558667 -0.993333,1.102667 -1.44,1.630667c-0.448,0.528 -0.870667,1.065333 -1.272,1.608c-0.4,0.544 -0.808,1.134667 -1.222667,1.774667c0.32,-0.350667 0.672,-0.717333 1.054667,-1.102667c0.384,-0.385333 0.768,-0.736 1.153333,-1.054667c0.382667,-0.321333 0.765333,-0.584 1.150667,-0.793333c0.384,-0.206667 0.736,-0.310667 1.054667,-0.310667c0.321333,0 0.582667,0.096 0.793333,0.288c0.206667,0.189333 0.310667,0.510667 0.310667,0.96c0,0.317333 -0.136,0.814667 -0.408,1.485333c-0.270667,0.670667 -0.736,1.426667 -1.392,2.256c-0.654667,0.832 -1.526667,1.696 -2.614667,2.592c-1.086667,0.893333 -2.446667,1.726667 -4.077333,2.493333c0.862667,-0.097333 1.830667,-0.245333 2.902667,-0.456c1.070667,-0.206667 2.182667,-0.56 3.334667,-1.056c1.150667,-0.494667 2.302667,-1.165333 3.454667,-2.013333c1.152,-0.848 2.238667,-1.944 3.262667,-3.288c0.030667,-0.062667 0.086667,-0.086667 0.168,-0.072c0.08,0.017333 0.12,0.104 0.12,0.264" id="path50"/>
   <path fill="#FFFFFF" fill-rule="nonzero" d="m334.103997,351.089339c-0.257333,0.064 -0.545333,0.184 -0.864,0.358667c-0.321333,0.176 -0.561333,0.392 -0.72,0.646667c-0.737333,1.022667 -1.448,2.096 -2.134667,3.216c-0.689333,1.12 -1.353333,2.24 -1.992,3.36l5.949333,0c0.097333,0.062667 0.144,0.128 0.144,0.192c0,0.064 -0.032,0.112 -0.096,0.141333c-0.256,0 -0.64,0.009333 -1.150667,0.024c-0.512,0.017333 -1.073333,0.042667 -1.68,0.073333c-0.608,0.033333 -1.232,0.065333 -1.872,0.097333c-0.64,0.030667 -1.197333,0.064 -1.678667,0.094667c-0.896,1.598667 -1.582667,2.96 -2.062667,4.078667c-0.48,1.12 -0.72,2.096 -0.72,2.925333c0,1.152 0.526667,1.728 1.584,1.728c0.510667,0 1.094667,-0.136 1.750667,-0.408c0.654667,-0.272 1.352,-0.630667 2.086667,-1.08c0.097333,-0.094667 0.192,-0.089333 0.288,0.024c0.096,0.112 0.064,0.202667 -0.096,0.265333c-1.088,0.702667 -2.096,1.217333 -3.021333,1.536c-0.929333,0.316 -1.872,0.477333 -2.832,0.477333c-0.512,0 -0.96,-0.150667 -1.344,-0.453333c-0.384,-0.305333 -0.576,-0.824 -0.576,-1.56c0,-0.64 0.288,-1.584 0.865333,-2.830667c0.574667,-1.248 1.422667,-2.784 2.541333,-4.608c-0.382667,0.032 -0.856,0.072 -1.414667,0.12c-0.56,0.050667 -0.886667,0.072 -0.984,0.072c-0.16,0 -0.24,-0.064 -0.24,-0.192c0.128,-0.221333 0.337333,-0.445333 0.624,-0.669333l2.446667,-0.048c0.288,-0.481333 0.608,-1.016 0.96,-1.608c0.352,-0.593333 0.702667,-1.184 1.054667,-1.778667c0.353333,-0.588 0.712,-1.164 1.08,-1.725333c0.368,-0.558667 0.697333,-1.078667 0.985333,-1.558667c0.350667,-0.16 0.838667,-0.368 1.461333,-0.622667c0.625333,-0.257333 1.177333,-0.465333 1.657333,-0.626667c0.062667,0 0.110667,0.042667 0.142667,0.122667c0.032,0.077333 -0.016,0.152 -0.142667,0.216" id="path52"/>
   <path fill="#FFFFFF" fill-rule="nonzero" d="m341.395997,351.614673c0,0.385333 -0.168,0.770667 -0.504,1.152c-0.334667,0.384 -0.712,0.577333 -1.126667,0.577333c-0.384,0 -0.576,-0.193333 -0.576,-0.577333c0,-0.414667 0.150667,-0.816 0.456,-1.197333c0.302667,-0.385333 0.68,-0.577333 1.128,-0.577333c0.414667,0 0.622667,0.210667 0.622667,0.622667zm2.16,10.701333c-0.768,0.993333 -1.648,1.936 -2.638667,2.830667c-0.993333,0.896 -1.904,1.617333 -2.736,2.158667c-0.64,0.417333 -1.294667,0.738667 -1.966667,0.961333c-0.672,0.222667 -1.28,0.334667 -1.824,0.334667c-0.192,0 -0.416,-0.016 -0.670667,-0.049333c-0.257333,-0.028 -0.489333,-0.110667 -0.696,-0.238667c-0.209333,-0.128 -0.384,-0.294667 -0.528,-0.504c-0.144,-0.206667 -0.216,-0.486667 -0.216,-0.837333c0,-0.416 0.16,-0.984 0.48,-1.705333c0.32,-0.718667 0.694667,-1.464 1.128,-2.229333c0.430667,-0.769333 0.862667,-1.504 1.294667,-2.209333c0.432,-0.704 0.774667,-1.232 1.032,-1.582667c0.16,-0.254667 0.438667,-0.472 0.84,-0.646667c0.398667,-0.176 0.664,-0.265333 0.792,-0.265333c0.158667,0 0.238667,0.049333 0.238667,0.144c0,0.064 -0.024,0.158667 -0.072,0.288c-0.048,0.128 -0.104,0.225333 -0.166667,0.288c-0.417333,0.638667 -0.84,1.342667 -1.273333,2.110667c-0.432,0.769333 -0.822667,1.510667 -1.174667,2.232c-0.352,0.718667 -0.630667,1.384 -0.84,1.990667c-0.208,0.606667 -0.312,1.086667 -0.312,1.44c0,0.382667 0.104,0.664 0.312,0.84c0.209333,0.174667 0.488,0.264 0.84,0.264c0.638667,0 1.342667,-0.216 2.112,-0.649333c0.766667,-0.432 1.526667,-0.950667 2.278667,-1.558667c0.750667,-0.608 1.446667,-1.246667 2.086667,-1.92c0.64,-0.670667 1.136,-1.245333 1.488,-1.726667c0.16,-0.161333 0.248,-0.2 0.264,-0.12c0.016,0.08 -0.008,0.2 -0.072,0.36" id="path54"/>
   <path fill="#FFFFFF" fill-rule="nonzero" d="m367.35333,340.004006c0,0.352 -0.088,0.705333 -0.262667,1.054667c-0.176,0.352 -0.296,0.754667 -0.36,1.201333c0,0.161333 -0.057333,0.246667 -0.168,0.262667c-0.112,0.017333 -0.168,-0.053333 -0.168,-0.214667c0,-0.096 0.016,-0.184 0.048,-0.265333c0.030667,-0.078667 0.048,-0.165333 0.048,-0.262667c0,-0.384 -0.096,-0.721333 -0.288,-1.008c-0.192,-0.288 -0.44,-0.518667 -0.744,-0.694667c-0.305333,-0.177333 -0.632,-0.304 -0.982667,-0.385333c-0.353333,-0.078667 -0.689333,-0.118667 -1.008,-0.118667c-0.737333,0 -1.656,0.189333 -2.76,0.574667c-1.102667,0.384 -2.294667,1.232 -3.574667,2.542667c-1.184,1.217333 -2.344,2.616 -3.478667,4.201333c-1.134667,1.58 -2.214667,3.205333 -3.238667,4.868c-0.64,1.054667 -1.36,2.262667 -2.158667,3.622667c-0.8,1.358667 -1.568,2.685333 -2.302667,3.981333c-0.737333,1.296 -1.392,2.448 -1.968,3.454667c-0.576,1.009333 -0.944,1.689333 -1.102667,2.038667c-0.129333,0.257333 -0.177333,0.385333 -0.144,0.385333c0.062667,0 0.190667,-0.096 0.382667,-0.288c0.544,-0.542667 1.104,-1.070667 1.68,-1.582667c0.576,-0.512 1.2,-1.073333 1.872,-1.68c-0.033333,-0.128 -0.049333,-0.336 -0.049333,-0.624c0,-0.254667 0.2,-0.504 0.6,-0.744c0.4,-0.24 0.712,-0.392 0.936,-0.456c0.064,0 0.096,0.064 0.096,0.192c0,0.098667 0.016,0.176 0.048,0.24c0.16,-0.128 0.528,-0.438667 1.104,-0.936c0.574667,-0.494667 1.2,-1.005333 1.870667,-1.534667c0.672,-0.526667 1.288,-1.006667 1.848,-1.438667c0.558667,-0.432 0.902667,-0.648 1.030667,-0.648c0.096,0 0.184,0.04 0.264,0.12c0.08,0.08 0.168,0.248 0.264,0.504c0,0.193333 -0.16,0.334667 -0.48,0.430667c-0.382667,0.128 -0.846667,0.353333 -1.390667,0.672c-0.545333,0.32 -1.096,0.688 -1.656,1.102667c-0.56,0.418667 -1.102667,0.834667 -1.630667,1.248c-0.528,0.416 -0.952,0.769333 -1.272,1.056c0.032,0.417333 0.094667,0.88 0.192,1.392c0.096,0.512 0.206667,1.022667 0.336,1.534667c0.126667,0.512 0.28,1.016 0.456,1.512c0.176,0.496 0.36,0.936 0.550667,1.318667c0.16,0.353333 0.392,0.610667 0.697333,0.768c0.302667,0.161333 0.614667,0.24 0.934667,0.24c0.48,0 1.014667,-0.192 1.606667,-0.574667c0.592,-0.385333 1.192,-0.870667 1.8,-1.464c0.606667,-0.590667 1.190667,-1.232 1.752,-1.918667c0.558667,-0.688 1.046667,-1.336 1.462667,-1.944c0.096,-0.16 0.2,-0.190667 0.312,-0.096c0.112,0.096 0.12,0.193333 0.024,0.289333c-0.478667,0.637333 -0.992,1.28 -1.536,1.918667c-0.542667,0.64 -1.094667,1.246667 -1.654667,1.821333c-0.56,0.577333 -1.110667,1.090667 -1.656,1.536c-0.544,0.449333 -1.038667,0.8 -1.486667,1.057333c-0.768,0.382667 -1.424,0.573333 -1.968,0.573333c-0.414667,0 -0.782667,-0.094667 -1.104,-0.288c-0.32,-0.189333 -0.598667,-0.533333 -0.838667,-1.030667c-0.24,-0.494667 -0.464,-1.176 -0.672,-2.037333c-0.208,-0.866667 -0.44,-1.969333 -0.694667,-3.313333c-1.025333,0.994667 -2.048,2.017333 -3.072,3.072c-1.024,1.054667 -1.888,2.206667 -2.589333,3.454667c-0.065333,0.158667 -0.193333,0.24 -0.385333,0.24c-0.224,0 -0.4,-0.137333 -0.528,-0.406667c-0.128,-0.272 -0.192,-0.521333 -0.192,-0.745333c0,-0.062667 0,-0.126667 0,-0.193333c0,-0.062667 0.016,-0.126667 0.048,-0.190667c0.32,-0.448 0.656,-0.998667 1.006667,-1.654667c0.353333,-0.656 0.793333,-1.454667 1.321333,-2.398667c0.528,-0.944 1.176,-2.070667 1.942667,-3.384c0.768,-1.309333 1.710667,-2.861333 2.830667,-4.653333c0.512,-0.830667 1.094667,-1.733333 1.752,-2.710667c0.654667,-0.976 1.342667,-1.968 2.064,-2.976c0.718667,-1.008 1.453333,-2 2.206667,-2.973333c0.750667,-0.976 1.478667,-1.864 2.182667,-2.664c0.512,-0.574667 1.062667,-1.157333 1.654667,-1.752c0.592,-0.589333 1.208,-1.133333 1.848,-1.632c0.638667,-0.493333 1.304,-0.933333 1.990667,-1.32c0.688,-0.381333 1.384,-0.653333 2.088,-0.816c0.318667,-0.061333 0.630667,-0.125333 0.936,-0.188c0.302667,-0.064 0.6,-0.097333 0.886667,-0.097333c0.257333,0 0.536,0.04 0.84,0.12c0.304,0.08 0.582667,0.192 0.84,0.336c0.254667,0.144 0.472,0.328 0.648,0.550667c0.174667,0.225333 0.262667,0.497333 0.262667,0.816" id="path56"/>
   <path fill="#FFFFFF" fill-rule="nonzero" d="m362.55733,359.149339c0,-0.416 -0.209333,-0.625333 -0.624,-0.625333c-0.321333,0 -0.648,0.12 -0.984,0.36c-0.336,0.24 -0.664,0.553333 -0.982667,0.936c-0.321333,0.384 -0.625333,0.798667 -0.912,1.248c-0.288,0.448 -0.528,0.881333 -0.721333,1.296c0.064,0.030667 0.176,0.056 0.337333,0.073333c0.158667,0.014667 0.286667,0.021333 0.384,0.021333c0.926667,0 1.742667,-0.326667 2.445333,-0.981333c0.704,-0.656 1.057333,-1.432 1.057333,-2.328zm5.037333,3.744c-0.542667,0.668 -1.192,1.365333 -1.942667,2.085333c-0.753333,0.718667 -1.568,1.376 -2.446667,1.968c-0.88,0.593333 -1.792,1.072 -2.734667,1.44c-0.945333,0.366667 -1.881333,0.550667 -2.808,0.550667c-1.502667,0 -2.254667,-0.670667 -2.254667,-2.014667c0,-0.897333 0.230667,-1.862667 0.696,-2.905333c0.462667,-1.037333 1.062667,-1.997333 1.798667,-2.877333c0.736,-0.88 1.542667,-1.614667 2.422667,-2.206667c0.88,-0.593333 1.718667,-0.889333 2.518667,-0.889333c0.448,0 0.76,0.081333 0.936,0.24c0.174667,0.162667 0.264,0.370667 0.264,0.624c0,0.385333 -0.12,0.801333 -0.358667,1.250667c-0.241333,0.446667 -0.601333,0.870667 -1.08,1.269333c-0.48,0.401333 -1.088,0.737333 -1.824,1.009333c-0.736,0.270667 -1.616,0.405333 -2.64,0.405333c-0.16,0.289333 -0.334667,0.745333 -0.526667,1.369333c-0.192,0.625333 -0.288,1.256 -0.288,1.894667c0,1.310667 0.590667,1.965333 1.774667,1.965333c0.736,0 1.496,-0.174667 2.28,-0.525333c0.782667,-0.353333 1.542667,-0.793333 2.278667,-1.32c0.736,-0.529333 1.416,-1.104 2.04,-1.728c0.624,-0.621333 1.142667,-1.208 1.56,-1.750667c0.062667,-0.064 0.134667,-0.078667 0.214667,-0.048c0.08,0.033333 0.12,0.096 0.12,0.193333" id="path58"/>
   <path fill="#FFFFFF" fill-rule="nonzero" d="m375.990663,358.813339c-0.190667,0.224 -0.390667,0.497333 -0.6,0.814667c-0.208,0.321333 -0.344,0.561333 -0.406667,0.72c-0.032,0.097333 -0.096,0.146667 -0.193333,0.146667c-0.032,0 -0.078667,-0.049333 -0.142667,-0.146667c-0.064,-0.094667 -0.153333,-0.198667 -0.265333,-0.309333c-0.110667,-0.113333 -0.262667,-0.218667 -0.454667,-0.314667c-0.192,-0.096 -0.464,-0.144 -0.816,-0.144c-0.416,0 -0.88,0.144 -1.390667,0.433333c-0.513333,0.286667 -0.96,0.605333 -1.344,0.96c-0.606667,0.510667 -1.144,1.070667 -1.606667,1.678667c-0.465333,0.606667 -0.905333,1.241333 -1.32,1.896c-0.416,0.656 -0.816,1.326667 -1.2,2.013333c-0.382667,0.688 -0.8,1.385333 -1.248,2.088c-0.030667,0.096 -0.128,0.142667 -0.286667,0.142667c-0.065333,0 -0.2,-0.094667 -0.408,-0.288c-0.208,-0.190667 -0.312,-0.333333 -0.312,-0.432c0,-0.189333 0.112,-0.48 0.336,-0.862667c0.510667,-0.894667 1.030667,-1.798667 1.558667,-2.710667c0.528,-0.910667 1.024,-1.765333 1.488,-2.565333c0.462667,-0.801333 0.870667,-1.497333 1.224,-2.089333c0.350667,-0.590667 0.590667,-1.030667 0.718667,-1.32c0.16,-0.286667 0.272,-0.432 0.336,-0.432c0.064,0 0.224,0.081333 0.48,0.241333c0.254667,0.162667 0.384,0.385333 0.384,0.670667c0,0.097333 -0.056,0.258667 -0.168,0.48c-0.112,0.225333 -0.24,0.456 -0.384,0.694667c-0.142667,0.241333 -0.28,0.473333 -0.408,0.697333c-0.128,0.224 -0.224,0.384 -0.286667,0.48c-0.097333,0.16 -0.113333,0.241333 -0.049333,0.241333c0.064,0 0.144,-0.048 0.241333,-0.145333c0.317333,-0.32 0.710667,-0.672 1.174667,-1.056c0.462667,-0.382667 0.950667,-0.742667 1.462667,-1.078667c0.512,-0.336 1.016,-0.616 1.512,-0.84c0.496,-0.222667 0.936,-0.336 1.32,-0.336c0.286667,0 0.534667,0.073333 0.744,0.217333c0.206667,0.144 0.310667,0.296 0.310667,0.454667" id="path60"/>
   <path fill="#FFFFFF" fill-rule="nonzero" d="m389.761329,362.412006c-0.576,0.801333 -1.24,1.605333 -1.989333,2.425333c-0.754667,0.814667 -1.553333,1.541333 -2.4,2.18c-0.849333,0.641333 -1.712,1.168 -2.590667,1.584c-0.881333,0.416 -1.736,0.625333 -2.566667,0.625333c-0.384,0 -0.737333,-0.057333 -1.057333,-0.168c-0.32,-0.112 -0.48,-0.393333 -0.48,-0.84c0,-0.449333 0.16,-1.014667 0.48,-1.706667c0.32,-0.684 0.696,-1.413333 1.126667,-2.18c0.434667,-0.770667 0.881333,-1.552 1.345333,-2.353333c0.464,-0.798667 0.84,-1.533333 1.128,-2.205333c0.064,-0.158667 0.072,-0.296 0.024,-0.409333c-0.048,-0.110667 -0.153333,-0.118667 -0.312,-0.025333c-0.352,0.225333 -0.769333,0.529333 -1.248,0.914667c-0.48,0.384 -0.968,0.792 -1.464,1.224c-0.496,0.430667 -0.977333,0.870667 -1.44,1.318667c-0.462667,0.446667 -0.838667,0.848 -1.126667,1.2c-0.512,0.797333 -0.953333,1.536 -1.32,2.205333c-0.368,0.673333 -0.824,1.424 -1.366667,2.254667c-0.129333,0.193333 -0.224,0.289333 -0.288,0.289333c-0.161333,0 -0.296,-0.177333 -0.408,-0.526667c-0.113333,-0.352 -0.169333,-0.577333 -0.169333,-0.672c0,-0.289333 0.2,-0.681333 0.601333,-1.176c0.4,-0.496 0.838667,-1.046667 1.318667,-1.654667c0.512,-1.024 1.04,-2.104 1.584,-3.238667c0.544,-1.137333 1.008,-2.153333 1.392,-3.048c0.096,-0.16 0.24,-0.24 0.432,-0.24c0.190667,0 0.366667,0.08 0.526667,0.24c0.161333,0.161333 0.24,0.336 0.24,0.528c0,0.128 -0.232,0.568 -0.694667,1.32c-0.464,0.752 -0.922667,1.621333 -1.368,2.616c0.606667,-0.545333 1.272,-1.118667 1.990667,-1.729333c0.72,-0.606667 1.408,-1.168 2.062667,-1.68c0.656,-0.509333 1.232,-0.934667 1.728,-1.269333c0.496,-0.336 0.84,-0.504 1.032,-0.504c0.126667,0 0.248,0.070667 0.358667,0.214667c0.112,0.142667 0.169333,0.28 0.169333,0.408c0,0.128 -0.081333,0.321333 -0.24,0.574667c-0.352,0.512 -0.784,1.168 -1.296,1.968c-0.512,0.8 -1,1.625333 -1.464,2.472c-0.462667,0.846667 -0.854667,1.656 -1.173333,2.424c-0.321333,0.765333 -0.48,1.373333 -0.48,1.82c0,0.385333 0.078667,0.649333 0.238667,0.794667c0.16,0.144 0.414667,0.214667 0.768,0.214667c0.544,0 1.184,-0.208 1.92,-0.624c0.734667,-0.414667 1.494667,-0.934667 2.278667,-1.558667c0.782667,-0.625333 1.525333,-1.32 2.230667,-2.086667c0.704,-0.770667 1.278667,-1.502667 1.728,-2.209333c0.062667,-0.096 0.16,-0.118667 0.286667,-0.069333c0.128,0.045333 0.112,0.166667 -0.048,0.358667" id="path62"/>
   <path fill="#FFFFFF" fill-rule="nonzero" d="m403.725329,359.820006c-0.096,0.161333 -0.176,0.176 -0.24,0.048c-0.193333,-0.417333 -0.592,-0.622667 -1.2,-0.622667c-0.449333,0 -0.896,0.129333 -1.341333,0.382667c-0.450667,0.258667 -0.674667,0.642667 -0.674667,1.152c0,0.256 0.082667,0.513333 0.241333,0.769333c0.158667,0.256 0.382667,0.590667 0.672,1.008c0.254667,0.382667 0.493333,0.765333 0.72,1.150667c0.222667,0.384 0.334667,0.784 0.334667,1.197333c0,0.834667 -0.192,1.513333 -0.576,2.041333c-0.384,0.526667 -0.84,0.950667 -1.368,1.272c-0.528,0.318667 -1.062667,0.534667 -1.605333,0.648c-0.544,0.110667 -0.977333,0.166667 -1.296,0.166667c-1.952,0 -3.022667,-0.654667 -3.216,-1.966667c0.16,-0.094667 0.345333,-0.217333 0.552,-0.361333c0.208,-0.144 0.36,-0.277333 0.457333,-0.408c0.062667,0 0.110667,0.065333 0.144,0.194667c0.158667,0.574667 0.462667,1.070667 0.910667,1.485333c0.448,0.416 0.974667,0.624 1.584,0.624c0.256,0 0.557333,-0.024 0.912,-0.070667c0.349333,-0.049333 0.678667,-0.162667 0.982667,-0.337333c0.302667,-0.174667 0.568,-0.424 0.792,-0.744c0.222667,-0.318667 0.334667,-0.749333 0.334667,-1.296c0,-0.413333 -0.078667,-0.798667 -0.238667,-1.149333c-0.162667,-0.352 -0.337333,-0.672 -0.526667,-0.96c-0.194667,-0.32 -0.385333,-0.641333 -0.578667,-0.961333c-0.190667,-0.317333 -0.285333,-0.670667 -0.285333,-1.056c0,-0.382667 0.134667,-0.797333 0.408,-1.246667c0.269333,-0.445333 0.614667,-0.854667 1.029333,-1.221333c0.416,-0.369333 0.872,-0.681333 1.369333,-0.937333c0.493333,-0.257333 0.981333,-0.384 1.462667,-0.384c0.512,0 0.766667,0.16 0.766667,0.481333c-0.094667,0.158667 -0.190667,0.341333 -0.286667,0.550667c-0.097333,0.208 -0.176,0.390667 -0.24,0.550667" id="path64"/>
   <path fill="#FFFFFF" fill-rule="nonzero" d="m413.417329,360.780006c-0.065333,-0.285333 -0.112,-0.621333 -0.144,-1.006667c-0.032,-0.385333 -0.048,-0.752 -0.048,-1.102667c0,-0.161333 -0.065333,-0.241333 -0.193333,-0.241333c-0.352,0 -0.718667,0.12 -1.102667,0.358667c-0.384,0.24 -0.768,0.56 -1.150667,0.961333c-0.385333,0.4 -0.769333,0.856 -1.153333,1.366667c-0.382667,0.512 -0.736,1.04 -1.054667,1.584c-0.416,0.702667 -0.793333,1.464 -1.126667,2.278667c-0.337333,0.814667 -0.489333,1.590667 -0.456,2.326667c0,0.224 0.04,0.432 0.118667,0.625333c0.081333,0.190667 0.265333,0.288 0.552,0.288c0.544,0 1.134667,-0.305333 1.774667,-0.913333c0.64,-0.605333 1.246667,-1.317333 1.824,-2.133333c0.576,-0.816 1.062667,-1.641333 1.464,-2.472c0.398667,-0.830667 0.630667,-1.470667 0.696,-1.92zm7.916,-0.334667c-0.544,0.734667 -1.208,1.398667 -1.992,1.992c-0.782667,0.592 -1.670667,0.885333 -2.661333,0.885333c-0.545333,0 -1.08,-0.134667 -1.609333,-0.406667c-0.525333,-0.272 -0.950667,-0.681333 -1.270667,-1.224c-0.224,0.512 -0.510667,1.096 -0.862667,1.752c-0.352,0.654667 -0.769333,1.312 -1.248,1.966667c-0.48,0.656 -1.016,1.256 -1.606667,1.798667c-0.593333,0.544 -1.222667,0.993333 -1.897333,1.342667c-0.574667,0.257333 -1.053333,0.385333 -1.437333,0.385333c-1.152,0 -1.728,-0.510667 -1.728,-1.536c0,-0.574667 0.102667,-1.168 0.313333,-1.774667c0.206667,-0.608 0.470667,-1.198667 0.790667,-1.774667c0.318667,-0.574667 0.664,-1.118667 1.030667,-1.632c0.366667,-0.509333 0.710667,-0.926667 1.030667,-1.246667c0.674667,-0.737333 1.44,-1.358667 2.304,-1.872c0.864,-0.510667 1.790667,-0.817333 2.784,-0.912c0.064,-0.254667 0.158667,-0.552 0.286667,-0.886667c0.128,-0.337333 0.352,-0.534667 0.673333,-0.601333c0.157333,-0.030667 0.318667,-0.062667 0.478667,-0.094667c0.16,-0.032 0.304,-0.08 0.433333,-0.142667c0.094667,-0.065333 0.190667,-0.073333 0.288,-0.025333c0.094667,0.046667 0.110667,0.136 0.046667,0.262667c-0.224,0.353333 -0.392,0.801333 -0.505333,1.342667c-0.110667,0.546667 -0.166667,1.136 -0.166667,1.776c0,0.896 0.166667,1.632 0.504,2.206667c0.336,0.577333 0.918667,0.866667 1.750667,0.866667c0.832,0 1.582667,-0.273333 2.257333,-0.817333c0.670667,-0.542667 1.229333,-1.136 1.677333,-1.776c0.062667,-0.16 0.169333,-0.206667 0.312,-0.141333c0.144,0.064 0.152,0.158667 0.024,0.286667" id="path66"/>
   <path fill="#FFFFFF" fill-rule="nonzero" d="m435.535996,364.476006c-0.446667,0.512 -0.984,1.086667 -1.606667,1.725333c-0.625333,0.641333 -1.289333,1.248 -1.990667,1.824c-0.704,0.576 -1.433333,1.056 -2.184,1.44c-0.752,0.384 -1.478667,0.576 -2.184,0.576c-0.638667,0 -1.086667,-0.128 -1.344,-0.384c-0.254667,-0.257333 -0.382667,-0.656 -0.382667,-1.201333c0,-0.349333 0.182667,-0.926667 0.550667,-1.725333c0.368,-0.801333 0.776,-1.632 1.224,-2.494667c0.448,-0.864 0.856,-1.685333 1.224,-2.472c0.368,-0.784 0.552,-1.333333 0.552,-1.654667c0,-0.192 -0.08,-0.289333 -0.24,-0.289333c-0.417333,0.225333 -0.888,0.552 -1.414667,0.984c-0.529333,0.433333 -1.049333,0.906667 -1.561333,1.416c-0.512,0.513333 -0.982667,1.008 -1.414667,1.488c-0.430667,0.48 -0.76,0.881333 -0.984,1.197333c-0.224,0.321333 -0.446667,0.705333 -0.670667,1.153333c-0.224,0.446667 -0.44,0.88 -0.648,1.293333c-0.208,0.417333 -0.416,0.769333 -0.625333,1.058667c-0.208,0.286667 -0.392,0.429333 -0.550667,0.429333c-0.161333,0 -0.304,-0.078667 -0.433333,-0.238667c-0.125333,-0.16 -0.189333,-0.318667 -0.189333,-0.48c0,-0.096 0.048,-0.264 0.144,-0.504c0.093333,-0.238667 0.269333,-0.533333 0.526667,-0.886667c0.416,-0.577333 0.792,-1.184 1.128,-1.825333c0.336,-0.637333 0.622667,-1.230667 0.864,-1.773333c0.238667,-0.544 0.422667,-1.009333 0.550667,-1.392c0.128,-0.384 0.192,-0.608 0.192,-0.672c0,-0.254667 -0.064,-0.385333 -0.192,-0.385333c-0.192,0 -0.52,0.202667 -0.981333,0.6c-0.465333,0.401333 -0.969333,0.888 -1.513333,1.465333c-0.545333,0.574667 -1.08,1.184 -1.605333,1.824c-0.529333,0.64 -0.970667,1.214667 -1.321333,1.725333c-0.449333,0.674667 -0.832,1.265333 -1.152,1.774667c-0.32,0.513333 -0.558667,0.768 -0.718667,0.768c-0.256,0 -0.408,-0.112 -0.456,-0.336c-0.048,-0.221333 -0.072,-0.445333 -0.072,-0.670667c0,-0.256 0.062667,-0.464 0.192,-0.624c0.862667,-1.373333 1.709333,-2.781333 2.542667,-4.221333c0.830667,-1.438667 1.664,-2.864 2.494667,-4.269333c0.158667,-0.289333 0.336,-0.434667 0.528,-0.434667c0.16,0 0.305333,0.090667 0.430667,0.265333c0.129333,0.176 0.193333,0.344 0.193333,0.504c-0.225333,0.638667 -0.606667,1.422667 -1.152,2.350667c-0.544,0.928 -1.024,1.776 -1.44,2.544c1.278667,-1.472 2.350667,-2.584 3.214667,-3.334667c0.864,-0.752 1.568,-1.129333 2.112,-1.129333c0.352,0 0.528,0.24 0.528,0.72c0,0.321333 -0.144,0.808 -0.432,1.464c-0.288,0.657333 -0.544,1.192 -0.768,1.609333c-0.064,0.125333 -0.072,0.182667 -0.024,0.166667c0.048,-0.016 0.104,-0.056 0.169333,-0.121333c0.382667,-0.448 0.821333,-0.918667 1.317333,-1.414667c0.497333,-0.496 1.024,-0.968 1.585333,-1.413333c0.558667,-0.449333 1.118667,-0.866667 1.678667,-1.249333c0.557333,-0.382667 1.08,-0.686667 1.56,-0.912c0.481333,0 0.718667,0.225333 0.718667,0.670667c0,0.097333 -0.016,0.194667 -0.048,0.289333c-0.032,0.094667 -0.08,0.208 -0.144,0.334667c-0.158667,0.353333 -0.457333,0.929333 -0.886667,1.728c-0.432,0.8 -0.872,1.654667 -1.32,2.566667c-0.446667,0.914667 -0.84,1.793333 -1.174667,2.638667c-0.336,0.848 -0.505333,1.497333 -0.505333,1.942667c0,0.641333 0.304,0.961333 0.913333,0.961333c0.574667,0 1.182667,-0.192 1.822667,-0.574667c0.638667,-0.386667 1.28,-0.846667 1.92,-1.393333c0.637333,-0.544 1.229333,-1.110667 1.774667,-1.704c0.542667,-0.589333 1.006667,-1.110667 1.390667,-1.557333c0.128,-0.192 0.254667,-0.272 0.384,-0.24c0.128,0.032 0.096,0.192 -0.096,0.48" id="path68"/>
   <path fill="#FFFFFF" fill-rule="nonzero" d="m473.874662,334.294673c0,0.128 -0.025333,0.352 -0.073333,0.670667c-0.048,0.32 -0.094667,0.673333 -0.144,1.056c-0.048,0.382667 -0.094667,0.768 -0.142667,1.150667c-0.048,0.385333 -0.072,0.672 -0.072,0.865333c-0.065333,0.064 -0.145333,0.096 -0.241333,0.096c-0.065333,0 -0.128,-0.032 -0.192,-0.096c0.064,-0.256 0.104,-0.48 0.121333,-0.673333c0.016,-0.192 0.024,-0.381333 0.024,-0.574667c0,-0.64 -0.265333,-1.133333 -0.793333,-1.486667c-0.526667,-0.353333 -1.270667,-0.529333 -2.230667,-0.529333c-0.670667,0 -1.368,0.113333 -2.085333,0.337333c-0.721333,0.225333 -1.456,0.622667 -2.209333,1.198667c-0.750667,0.576 -1.534667,1.344 -2.349333,2.304c-0.817333,0.96 -1.656,2.176 -2.52,3.646667c-0.478667,0.830667 -1.073333,1.902667 -1.776,3.214667c-0.702667,1.309333 -1.456,2.712 -2.254667,4.196c-0.8,1.489333 -1.6,3.009333 -2.398667,4.558667c-0.8,1.553333 -1.536,3 -2.208,4.342667c0.289333,0 0.769333,-0.006667 1.44,-0.022667c0.673333,-0.014667 1.36,-0.025333 2.064,-0.025333c0.702667,0 1.342667,0 1.918667,0c0.608,0 1.006667,0 1.2,0c0.158667,0.097333 0.208,0.257333 0.144,0.48c-0.129333,0 -0.449333,0 -0.96,0c-0.512,0 -1.12,0.009333 -1.822667,0.024c-0.704,0.017333 -1.432,0.032 -2.185333,0.049333c-0.750667,0.014667 -1.430667,0.024 -2.038667,0.024c-1.056,2.046667 -2.165333,4.102667 -3.333333,6.165333c-1.169333,2.064 -2.336,4.054667 -3.502667,5.973333c-1.168,1.92 -2.318667,3.704 -3.454667,5.350667c-1.136,1.645333 -2.185333,3.094667 -3.142667,4.342667c-2.4,3.069333 -4.68,5.668 -6.837333,7.796c-2.16,2.126667 -4.214667,3.854667 -6.165333,5.181333c-1.953333,1.326667 -3.782667,2.288 -5.493333,2.878667c-1.713333,0.594667 -3.334667,0.889333 -4.872,0.889333c-0.448,0 -0.936,-0.049333 -1.462667,-0.144c-0.528,-0.094667 -1.041333,-0.289333 -1.536,-0.574667c-0.496,-0.289333 -0.936,-0.696 -1.32,-1.225333c-0.382667,-0.528 -0.670667,-1.225333 -0.862667,-2.086667c0,-0.256 0.030667,-0.368 0.094667,-0.336c0.064,0.030667 0.128,0.126667 0.192,0.288c0.032,0.224 0.16,0.518667 0.385333,0.886667c0.222667,0.368 0.550667,0.728 0.982667,1.08c0.432,0.352 0.968,0.649333 1.606667,0.886667c0.641333,0.241333 1.409333,0.361333 2.304,0.361333c1.438667,-0.032 2.998667,-0.297333 4.68,-0.790667c1.677333,-0.497333 3.444,-1.368 5.301333,-2.617333c1.853333,-1.245333 3.796,-2.917333 5.829333,-5.013333c2.030667,-2.096 4.133333,-4.741333 6.309333,-7.941333c1.152,-1.694667 2.294667,-3.510667 3.430667,-5.445333c1.134667,-1.936 2.238667,-3.854667 3.310667,-5.757333c1.070667,-1.904 2.077333,-3.734667 3.022667,-5.493333c0.944,-1.76 1.8,-3.294667 2.565333,-4.606667c-1.374667,0.096 -2.461333,0.189333 -3.261333,0.288c-0.801333,0.094667 -1.438667,0.248 -1.918667,0.456c-0.481333,0.206667 -0.856,0.510667 -1.128,0.910667c-0.270667,0.402667 -0.584,0.952 -0.934667,1.654667l-0.145333,-0.046667c0.446667,-1.056 0.896,-1.848 1.342667,-2.373333c0.449333,-0.530667 0.865333,-0.858667 1.250667,-0.985333c0.252,-0.062667 0.598667,-0.126667 1.028,-0.190667c0.433333,-0.064 0.897333,-0.113333 1.392,-0.144c0.497333,-0.033333 0.984,-0.064 1.465333,-0.097333c0.478667,-0.030667 0.896,-0.049333 1.246667,-0.049333c1.598667,-2.942667 3.144,-5.668 4.630667,-8.178667c1.488,-2.510667 3.029333,-4.966667 4.630667,-7.366667c0.862667,-1.310667 1.789333,-2.582667 2.782667,-3.814667c0.992,-1.230667 1.997333,-2.318667 3.022667,-3.262667c1.022667,-0.944 2.038667,-1.694667 3.046667,-2.254667c1.008,-0.558667 1.974667,-0.84 2.902667,-0.84c0.638667,0 1.2,0.145333 1.68,0.433333c0.48,0.286667 0.72,0.621333 0.72,1.006667" id="path70"/>
   <path fill="#FFFFFF" fill-rule="nonzero" d="m467.251995,351.329339c0,-0.545333 -0.129333,-0.992 -0.385333,-1.344c-0.256,-0.353333 -0.702667,-0.529333 -1.342667,-0.529333c-0.928,0 -1.606667,0.296 -2.038667,0.888c-0.430667,0.592 -0.649333,1.256 -0.649333,1.992c0,0.573333 0.176,1.029333 0.529333,1.368c0.352,0.334667 0.784,0.501333 1.296,0.501333c0.446667,0 0.830667,-0.085333 1.150667,-0.261333c0.32,-0.177333 0.582667,-0.409333 0.793333,-0.697333c0.206667,-0.288 0.366667,-0.6 0.478667,-0.936c0.112,-0.334667 0.168,-0.662667 0.168,-0.981333zm0.672,-0.098667c0,0.8 -0.296,1.545333 -0.889333,2.233333c-0.590667,0.688 -1.446667,1.030667 -2.566667,1.030667c-0.670667,0 -1.224,-0.176 -1.654667,-0.528c-0.432,-0.350667 -0.646667,-0.862667 -0.646667,-1.534667c0,-0.318667 0.062667,-0.664 0.190667,-1.032c0.128,-0.368 0.328,-0.72 0.601333,-1.056c0.269333,-0.336 0.621333,-0.616 1.054667,-0.84c0.432,-0.222667 0.952,-0.333333 1.558667,-0.333333c1.566667,0 2.352,0.686667 2.352,2.06zm-4.606667,7.152c-1.088,0 -2.129333,0.382667 -3.118667,1.149333c-0.992,0.768 -1.870667,1.674667 -2.64,2.712c-0.766667,1.038667 -1.384,2.070667 -1.846667,3.093333c-0.464,1.025333 -0.696,1.776 -0.696,2.254667c0,0.257333 0.096,0.385333 0.288,0.385333c0.193333,0 0.486667,-0.128 0.888,-0.385333c0.4,-0.254667 0.856,-0.598667 1.366667,-1.030667c0.512,-0.430667 1.033333,-0.934667 1.56,-1.509333c0.528,-0.576 1.014667,-1.2 1.464,-1.872c0.512,-0.768 1.008,-1.582667 1.488,-2.448c0.48,-0.864 0.910667,-1.630667 1.294667,-2.302667l-0.048,-0.046667zm7.484,3.644c-0.734667,0.897333 -1.542667,1.801333 -2.42,2.712c-0.881333,0.913333 -1.770667,1.734667 -2.664,2.470667c-0.896,0.737333 -1.784,1.328 -2.662667,1.776c-0.882667,0.449333 -1.689333,0.672 -2.424,0.672c-0.641333,0 -1.086667,-0.158667 -1.344,-0.48c-0.256,-0.321333 -0.384,-0.721333 -0.384,-1.2c0,-0.448 0.136,-1.048 0.408,-1.8c0.270667,-0.752 0.678667,-1.56 1.222667,-2.421333c-0.416,0.544 -0.894667,1.118667 -1.438667,1.728c-0.544,0.605333 -1.102667,1.157333 -1.68,1.653333c-0.576,0.497333 -1.150667,0.913333 -1.726667,1.249333c-0.576,0.336 -1.086667,0.504 -1.536,0.504c-0.672,0 -1.006667,-0.338667 -1.006667,-1.008c0,-0.737333 0.288,-1.662667 0.862667,-2.784c0.577333,-1.118667 1.350667,-2.2 2.328,-3.238667c0.974667,-1.038667 2.088,-1.934667 3.334667,-2.686667c1.248,-0.750667 2.544,-1.129333 3.886667,-1.129333c0.16,-0.317333 0.302667,-0.541333 0.430667,-0.669333c0.128,-0.129333 0.256,-0.224 0.385333,-0.290667l1.344,-0.382667l0.094667,0.048c-0.16,0.16 -0.312,0.361333 -0.454667,0.598667c-0.144,0.24 -0.296,0.490667 -0.457333,0.744c0.161333,0 0.4,0.02 0.72,0.049333c0.321333,0.032 0.56,0.064 0.718667,0.096c0.16,0.064 0.241333,0.145333 0.241333,0.24c0,0.094667 -0.048,0.144 -0.145333,0.144c-0.189333,-0.062667 -0.478667,-0.112 -0.862667,-0.144c-0.384,-0.030667 -0.672,-0.048 -0.862667,-0.048c-1.472,2.589333 -2.552,4.646667 -3.238667,6.166667c-0.690667,1.518667 -1.032,2.648 -1.032,3.381333c0,0.289333 0.072,0.526667 0.216,0.72c0.142667,0.193333 0.44,0.288 0.888,0.288c0.510667,0 1.118667,-0.185333 1.822667,-0.552c0.702667,-0.369333 1.456,-0.878667 2.254667,-1.536c0.8,-0.653333 1.622667,-1.413333 2.472,-2.28c0.846667,-0.861333 1.654667,-1.774667 2.421333,-2.732c0.064,-0.097333 0.128,-0.121333 0.193333,-0.073333c0.064,0.048 0.094667,0.121333 0.094667,0.214667" id="path72"/>
   <path fill="#FFFFFF" fill-rule="nonzero" d="m478.622662,358.813339c-0.190667,0.224 -0.392,0.497333 -0.6,0.814667c-0.206667,0.321333 -0.342667,0.561333 -0.408,0.72c-0.030667,0.097333 -0.094667,0.146667 -0.190667,0.146667c-0.033333,0 -0.081333,-0.049333 -0.145333,-0.146667c-0.062667,-0.094667 -0.150667,-0.198667 -0.262667,-0.309333c-0.113333,-0.113333 -0.262667,-0.218667 -0.456,-0.314667c-0.192,-0.096 -0.464,-0.144 -0.814667,-0.144c-0.416,0 -0.881333,0.144 -1.392,0.433333c-0.513333,0.286667 -0.96,0.605333 -1.345333,0.96c-0.606667,0.510667 -1.141333,1.070667 -1.606667,1.678667c-0.464,0.606667 -0.902667,1.241333 -1.318667,1.896c-0.416,0.656 -0.816,1.326667 -1.198667,2.013333c-0.384,0.688 -0.8,1.385333 -1.248,2.088c-0.030667,0.096 -0.129333,0.142667 -0.289333,0.142667c-0.064,0 -0.198667,-0.094667 -0.408,-0.288c-0.208,-0.190667 -0.312,-0.333333 -0.312,-0.432c0,-0.189333 0.112,-0.48 0.337333,-0.862667c0.512,-0.894667 1.032,-1.798667 1.558667,-2.710667c0.529333,-0.910667 1.025333,-1.765333 1.488,-2.565333c0.464,-0.801333 0.872,-1.497333 1.224,-2.089333c0.349333,-0.590667 0.590667,-1.030667 0.718667,-1.32c0.16,-0.286667 0.270667,-0.432 0.336,-0.432c0.064,0 0.224,0.081333 0.48,0.241333c0.254667,0.162667 0.384,0.385333 0.384,0.670667c0,0.097333 -0.054667,0.258667 -0.166667,0.48c-0.113333,0.225333 -0.241333,0.456 -0.385333,0.694667c-0.144,0.241333 -0.278667,0.473333 -0.408,0.697333c-0.129333,0.224 -0.224,0.384 -0.288,0.48c-0.096,0.16 -0.112,0.241333 -0.048,0.241333c0.064,0 0.144,-0.048 0.241333,-0.145333c0.318667,-0.32 0.710667,-0.672 1.174667,-1.056c0.462667,-0.382667 0.949333,-0.742667 1.462667,-1.078667c0.512,-0.336 1.016,-0.616 1.512,-0.84c0.496,-0.222667 0.934667,-0.336 1.32,-0.336c0.288,0 0.534667,0.073333 0.744,0.217333c0.208,0.144 0.310667,0.296 0.310667,0.454667" id="path74"/>
   <path fill="#FFFFFF" fill-rule="nonzero" d="m495.465328,358.718673c-1.216,0.030667 -2.152,0.262667 -2.805333,0.694667c-0.658667,0.430667 -1.242667,0.968 -1.753333,1.605333c-1.216,1.506667 -2.078667,2.794667 -2.590667,3.864c-0.512,1.072 -0.768,1.862667 -0.768,2.374667c0,0.16 0.062667,0.272 0.192,0.334667c0.128,0.066667 0.222667,0.097333 0.288,0.097333c0.224,0 0.632,-0.24 1.222667,-0.717333c0.592,-0.48 1.248,-1.130667 1.969333,-1.944c0.718667,-0.816 1.461333,-1.769333 2.229333,-2.857333c0.769333,-1.086667 1.44,-2.238667 2.016,-3.452zm21.830666,-22.025333c0,0.192 -0.093333,0.384 -0.288,0.576c-0.190667,0.192 -0.318667,0.464 -0.382667,0.816c-0.064,0.224 -0.176,0.337333 -0.336,0.337333c-0.096,0 -0.193333,-0.026667 -0.289333,-0.074667c-0.093333,-0.046667 -0.214667,-0.102667 -0.358667,-0.166667c-0.144,-0.062667 -0.321333,-0.121333 -0.528,-0.169333c-0.208,-0.049333 -0.504,-0.069333 -0.888,-0.069333c-0.544,0 -1.086667,0.069333 -1.630667,0.214667c-0.544,0.144 -1.038667,0.358667 -1.488,0.646667c-0.894667,0.577333 -1.862667,1.392 -2.901333,2.446667c-1.04,1.057333 -1.990667,2.206667 -2.856,3.456c-2.142667,3.070667 -4.022667,5.942667 -5.637333,8.613333c-1.616,2.670667 -2.969333,5.062667 -4.054667,7.174667c-1.088,2.109333 -1.905333,3.906667 -2.448,5.396c-0.544,1.488 -0.817333,2.584 -0.817333,3.286667c0,0.545333 0.121333,0.990667 0.362667,1.344c0.241333,0.352 0.632,0.529333 1.174667,0.529333c0.864,0 1.688,-0.273333 2.470667,-0.818667c0.782667,-0.542667 1.528,-1.222667 2.232,-2.038667c0.702667,-0.814667 1.344,-1.72 1.92,-2.709333c0.574667,-0.992 1.069333,-1.922667 1.486667,-2.784c0.064,-0.129333 0.168,-0.174667 0.310667,-0.142667c0.145333,0.030667 0.137333,0.158667 -0.022667,0.382667c-0.576,1.152 -1.192,2.248 -1.846667,3.286667c-0.657333,1.041333 -1.344,1.950667 -2.065333,2.734667c-0.718667,0.784 -1.470667,1.398667 -2.253333,1.848c-0.784,0.445333 -1.56,0.672 -2.328,0.672c-0.864,0 -1.502667,-0.232 -1.918667,-0.697333c-0.416,-0.462667 -0.624,-1.061333 -0.624,-1.798667c0,-0.766667 0.153333,-1.592 0.457333,-2.473333c0.302667,-0.878667 0.773333,-1.957333 1.414667,-3.234667c-0.896,1.086667 -1.681333,1.997333 -2.350667,2.733333c-0.673333,0.734667 -1.264,1.312 -1.776,1.726667c-0.512,0.417333 -0.953333,0.712 -1.32,0.888c-0.368,0.174667 -0.696,0.265333 -0.984,0.265333c-0.449333,0 -0.749333,-0.12 -0.910667,-0.36c-0.16,-0.24 -0.241333,-0.553333 -0.241333,-0.938667c0,-0.286667 0.081333,-0.662667 0.241333,-1.124c0.161333,-0.464 0.384,-0.921333 0.670667,-1.369333c1.182667,-1.918667 2.504,-3.485333 3.96,-4.702667c1.453333,-1.216 3.254667,-2.013333 5.397333,-2.397333c1.536,-2.688 3.006667,-5.104 4.414667,-7.248c1.405333,-2.141333 2.942667,-4.238667 4.605333,-6.284c1.374667,-1.728 2.742667,-3.246667 4.102667,-4.56c1.358667,-1.309333 2.76,-2.301333 4.198667,-2.972c1.088,-0.513333 2.030667,-0.769333 2.829333,-0.769333c0.386667,0 0.697333,0.048 0.937333,0.144c0.238667,0.094667 0.358667,0.224 0.358667,0.384" id="path76"/>
   <path fill="#FFFFFF" fill-rule="nonzero" d="m508.899995,351.614673c0,0.385333 -0.169333,0.770667 -0.504,1.152c-0.336,0.384 -0.712,0.577333 -1.126667,0.577333c-0.385333,0 -0.576,-0.193333 -0.576,-0.577333c0,-0.414667 0.150667,-0.816 0.456,-1.197333c0.301333,-0.385333 0.68,-0.577333 1.126667,-0.577333c0.416,0 0.624,0.210667 0.624,0.622667zm2.157333,10.701333c-0.765333,0.993333 -1.646667,1.936 -2.637333,2.830667c-0.992,0.896 -1.904,1.617333 -2.736,2.158667c-0.638667,0.417333 -1.294667,0.738667 -1.965333,0.961333c-0.673333,0.222667 -1.28,0.334667 -1.825333,0.334667c-0.190667,0 -0.413333,-0.016 -0.670667,-0.049333c-0.256,-0.028 -0.488,-0.110667 -0.694667,-0.238667c-0.209333,-0.128 -0.385333,-0.294667 -0.529333,-0.504c-0.144,-0.206667 -0.216,-0.486667 -0.216,-0.837333c0,-0.416 0.161333,-0.984 0.481333,-1.705333c0.318667,-0.718667 0.693333,-1.464 1.125333,-2.229333c0.433333,-0.769333 0.866667,-1.504 1.296,-2.209333c0.432,-0.704 0.776,-1.232 1.033333,-1.582667c0.16,-0.254667 0.438667,-0.472 0.838667,-0.646667c0.398667,-0.176 0.664,-0.265333 0.792,-0.265333c0.158667,0 0.238667,0.049333 0.238667,0.144c0,0.064 -0.024,0.158667 -0.072,0.288c-0.046667,0.128 -0.104,0.225333 -0.166667,0.288c-0.416,0.638667 -0.84,1.342667 -1.272,2.110667c-0.432,0.769333 -0.824,1.510667 -1.176,2.232c-0.350667,0.718667 -0.630667,1.384 -0.838667,1.990667c-0.208,0.606667 -0.313333,1.086667 -0.313333,1.44c0,0.382667 0.105333,0.664 0.313333,0.84c0.208,0.174667 0.488,0.264 0.838667,0.264c0.64,0 1.342667,-0.216 2.112,-0.649333c0.768,-0.432 1.526667,-0.950667 2.278667,-1.558667c0.752,-0.608 1.446667,-1.246667 2.089333,-1.92c0.638667,-0.670667 1.133333,-1.245333 1.486667,-1.726667c0.158667,-0.161333 0.246667,-0.2 0.262667,-0.12c0.016,0.08 -0.009333,0.2 -0.073333,0.36" id="path78"/>
   <path fill="#FFFFFF" fill-rule="nonzero" d="m517.106661,358.621339c-0.098667,-0.030667 -0.225333,-0.049333 -0.384,-0.049333c-0.129333,0 -0.241333,0 -0.336,0c-0.450667,0 -0.873333,0.042667 -1.273333,0.122667c-0.398667,0.078667 -0.742667,0.248 -1.030667,0.504c-0.801333,0.669333 -1.488,1.42 -2.064,2.253333c-0.574667,0.832 -1.056,1.649333 -1.438667,2.445333c-0.385333,0.801333 -0.664,1.528 -0.84,2.185333c-0.176,0.656 -0.264,1.126667 -0.264,1.414667c0,0.352 0.096,0.528 0.286667,0.528c0.192,0 0.577333,-0.272 1.152,-0.816c0.576,-0.542667 1.224,-1.261333 1.944,-2.157333c0.721333,-0.896 1.464,-1.902667 2.230667,-3.025333c0.768,-1.118667 1.44,-2.253333 2.017333,-3.405333zm3.068,-2.832c0,0.289333 -0.078667,0.577333 -0.238667,0.865333c-1.6,2.973333 -3.04,5.606667 -4.318667,7.893333c-1.28,2.286667 -2.494667,4.398667 -3.648,6.332c-1.149333,1.936 -2.285333,3.806667 -3.405333,5.616c-1.12,1.804 -2.302667,3.732 -3.550667,5.781333c-1.022667,1.630667 -2.134667,3.158667 -3.334667,4.581333c-1.198667,1.422667 -2.525333,2.656 -3.982667,3.694667c-1.454667,1.038667 -3.038667,1.854667 -4.750667,2.448c-1.710667,0.590667 -3.589333,0.886667 -5.638667,0.886667c-1.501333,0 -2.741333,-0.2 -3.717333,-0.601333c-0.974667,-0.398667 -1.742667,-0.934667 -2.302667,-1.605333c-0.56,-0.673333 -0.952,-1.44 -1.176,-2.304c-0.224,-0.865333 -0.334667,-1.76 -0.334667,-2.685333c0,-0.385333 0.032,-0.793333 0.096,-1.225333c0.064,-0.432 0.142667,-0.776 0.238667,-1.030667c0.033333,-0.129333 0.096,-0.193333 0.192,-0.193333c0.096,0 0.144,0.081333 0.144,0.24c-0.062667,0.224 -0.126667,0.488 -0.190667,0.792c-0.065333,0.304 -0.097333,0.630667 -0.097333,0.984c0,1.118667 0.24,2.088 0.72,2.904c0.48,0.813333 1.144,1.488 1.990667,2.014667c0.849333,0.528 1.848,0.928 3,1.2c1.150667,0.270667 2.382667,0.406667 3.693333,0.406667c1.377333,0 2.76,-0.224 4.152,-0.672c1.390667,-0.446667 2.774667,-1.192 4.149333,-2.229333c1.376,-1.041333 2.729333,-2.393333 4.054667,-4.056c1.328,-1.664 2.632,-3.710667 3.910667,-6.141333c0.832,-1.536 1.712,-3.166667 2.638667,-4.894667c0.928,-1.726667 1.824,-3.381333 2.686667,-4.965333c0.864,-1.584 1.638667,-3.006667 2.328,-4.270667c0.686667,-1.262667 1.189333,-2.182667 1.512,-2.758667c-0.64,0.862667 -1.265333,1.68 -1.872,2.446667c-0.609333,0.768 -1.176,1.438667 -1.704,2.014667c-0.526667,0.576 -1.029333,1.033333 -1.510667,1.368c-0.48,0.336 -0.910667,0.504 -1.296,0.504c-0.288,0 -0.528,-0.096 -0.72,-0.289333c-0.190667,-0.190667 -0.286667,-0.493333 -0.286667,-0.909333c0,-0.481333 0.198667,-1.16 0.598667,-2.04c0.401333,-0.878667 0.928,-1.798667 1.584,-2.758667c0.654667,-0.961333 1.398667,-1.872 2.230667,-2.736c0.832,-0.864 1.68,-1.502667 2.544,-1.918667c0.768,-0.385333 1.533333,-0.574667 2.304,-0.574667c0.222667,0 0.397333,0.016 0.525333,0.046667c0.256,-0.446667 0.52,-0.894667 0.792,-1.342667c0.272,-0.448 0.552,-0.928 0.84,-1.44c0.224,-0.414667 0.432,-0.624 0.625333,-0.624c0.128,0 0.245333,0.142667 0.358667,0.432c0.112,0.289333 0.166667,0.56 0.166667,0.814667" id="path80"/>
   <path fill="#FFFFFF" fill-rule="nonzero" d="m538.743995,358.382673c-1.086667,0 -2.129333,0.382667 -3.12,1.149333c-0.989333,0.768 -1.869333,1.674667 -2.637333,2.712c-0.766667,1.038667 -1.384,2.070667 -1.848,3.093333c-0.464,1.025333 -0.694667,1.776 -0.694667,2.254667c0,0.257333 0.094667,0.385333 0.286667,0.385333c0.193333,0 0.488,-0.128 0.888,-0.385333c0.4,-0.254667 0.856,-0.598667 1.368,-1.030667c0.512,-0.430667 1.032,-0.934667 1.56,-1.509333c0.526667,-0.576 1.013333,-1.2 1.461333,-1.872c0.513333,-0.768 1.008,-1.582667 1.489333,-2.448c0.48,-0.864 0.909333,-1.630667 1.294667,-2.302667l-0.048,-0.046667zm7.484,3.644c-0.734667,0.897333 -1.542667,1.801333 -2.422667,2.712c-0.878667,0.913333 -1.766667,1.734667 -2.661333,2.470667c-0.896,0.737333 -1.785333,1.328 -2.662667,1.776c-0.881333,0.449333 -1.689333,0.672 -2.424,0.672c-0.641333,0 -1.088,-0.158667 -1.344,-0.48c-0.256,-0.321333 -0.384,-0.721333 -0.384,-1.2c0,-0.448 0.136,-1.048 0.406667,-1.8c0.272,-0.752 0.68,-1.56 1.224,-2.421333c-0.414667,0.544 -0.894667,1.118667 -1.438667,1.728c-0.542667,0.605333 -1.104,1.157333 -1.681333,1.653333c-0.573333,0.497333 -1.149333,0.913333 -1.725333,1.249333c-0.576,0.336 -1.086667,0.504 -1.534667,0.504c-0.673333,0 -1.008,-0.338667 -1.008,-1.008c0,-0.737333 0.286667,-1.662667 0.864,-2.784c0.576,-1.118667 1.349333,-2.2 2.328,-3.238667c0.974667,-1.038667 2.086667,-1.934667 3.334667,-2.686667c1.246667,-0.750667 2.542667,-1.129333 3.886667,-1.129333c0.16,-0.317333 0.301333,-0.541333 0.429333,-0.669333c0.128,-0.129333 0.256,-0.224 0.384,-0.290667l1.345333,-0.382667l0.094667,0.048c-0.16,0.16 -0.310667,0.361333 -0.456,0.598667c-0.144,0.24 -0.293333,0.490667 -0.454667,0.744c0.161333,0 0.398667,0.02 0.718667,0.049333c0.32,0.032 0.561333,0.064 0.721333,0.096c0.158667,0.064 0.237333,0.145333 0.237333,0.24c0,0.094667 -0.046667,0.144 -0.144,0.144c-0.190667,-0.062667 -0.477333,-0.112 -0.861333,-0.144c-0.386667,-0.030667 -0.672,-0.048 -0.865333,-0.048c-1.469333,2.589333 -2.550667,4.646667 -3.237333,6.166667c-0.689333,1.518667 -1.032,2.648 -1.032,3.381333c0,0.289333 0.073333,0.526667 0.214667,0.72c0.144,0.193333 0.441333,0.288 0.888,0.288c0.513333,0 1.12,-0.185333 1.824,-0.552c0.702667,-0.369333 1.456,-0.878667 2.254667,-1.536c0.8,-0.653333 1.622667,-1.413333 2.472,-2.28c0.848,-0.861333 1.654667,-1.774667 2.422667,-2.732c0.062667,-0.097333 0.126667,-0.121333 0.190667,-0.073333c0.065333,0.048 0.096,0.121333 0.096,0.214667" id="path82"/>
   <path fill="#FFFFFF" fill-rule="nonzero" d="m554.578661,351.089339c-0.256,0.064 -0.545333,0.184 -0.864,0.358667c-0.321333,0.176 -0.56,0.392 -0.72,0.646667c-0.737333,1.022667 -1.446667,2.096 -2.134667,3.216c-0.689333,1.12 -1.352,2.24 -1.992,3.36l5.950667,0c0.096,0.062667 0.142667,0.128 0.142667,0.192c0,0.064 -0.032,0.112 -0.096,0.141333c-0.256,0 -0.64,0.009333 -1.150667,0.024c-0.512,0.017333 -1.072,0.042667 -1.68,0.073333c-0.608,0.033333 -1.230667,0.065333 -1.870667,0.097333c-0.64,0.030667 -1.2,0.064 -1.68,0.094667c-0.896,1.598667 -1.582667,2.96 -2.062667,4.078667c-0.48,1.12 -0.72,2.096 -0.72,2.925333c0,1.152 0.526667,1.728 1.582667,1.728c0.510667,0 1.096,-0.136 1.753333,-0.408c0.654667,-0.272 1.350667,-0.630667 2.084,-1.08c0.097333,-0.094667 0.194667,-0.089333 0.290667,0.024c0.094667,0.112 0.064,0.202667 -0.096,0.265333c-1.089333,0.702667 -2.096,1.217333 -3.022667,1.536c-0.929333,0.316 -1.872,0.477333 -2.832,0.477333c-0.513333,0 -0.958667,-0.150667 -1.342667,-0.453333c-0.385333,-0.305333 -0.576,-0.824 -0.576,-1.56c0,-0.64 0.286667,-1.584 0.864,-2.830667c0.574667,-1.248 1.421333,-2.784 2.541333,-4.608c-0.382667,0.032 -0.854667,0.072 -1.414667,0.12c-0.558667,0.050667 -0.888,0.072 -0.984,0.072c-0.16,0 -0.24,-0.064 -0.24,-0.192c0.129333,-0.221333 0.336,-0.445333 0.625333,-0.669333l2.446667,-0.048c0.286667,-0.481333 0.608,-1.016 0.957333,-1.608c0.353333,-0.593333 0.705333,-1.184 1.057333,-1.778667c0.350667,-0.588 0.712,-1.164 1.078667,-1.725333c0.368,-0.558667 0.696,-1.078667 0.984,-1.558667c0.352,-0.16 0.84,-0.368 1.462667,-0.622667c0.625333,-0.257333 1.177333,-0.465333 1.657333,-0.626667c0.064,0 0.112,0.042667 0.144,0.122667c0.032,0.077333 -0.016,0.152 -0.144,0.216" id="path84"/>
   <path fill="#FFFFFF" fill-rule="nonzero" d="m564.078661,351.089339c-0.254667,0.064 -0.542667,0.184 -0.862667,0.358667c-0.322667,0.176 -0.562667,0.392 -0.72,0.646667c-0.737333,1.022667 -1.448,2.096 -2.136,3.216c-0.689333,1.12 -1.352,2.24 -1.990667,3.36l5.949333,0c0.094667,0.062667 0.144,0.128 0.144,0.192c0,0.064 -0.030667,0.112 -0.096,0.141333c-0.256,0 -0.64,0.009333 -1.150667,0.024c-0.512,0.017333 -1.073333,0.042667 -1.681333,0.073333c-0.606667,0.033333 -1.232,0.065333 -1.869333,0.097333c-0.642667,0.030667 -1.2,0.064 -1.68,0.094667c-0.896,1.598667 -1.584,2.96 -2.062667,4.078667c-0.48,1.12 -0.721333,2.096 -0.721333,2.925333c0,1.152 0.528,1.728 1.584,1.728c0.510667,0 1.096,-0.136 1.750667,-0.408c0.656,-0.272 1.353333,-0.630667 2.088,-1.08c0.096,-0.094667 0.192,-0.089333 0.288,0.024c0.097333,0.112 0.064,0.202667 -0.096,0.265333c-1.088,0.702667 -2.094667,1.217333 -3.024,1.536c-0.928,0.316 -1.869333,0.477333 -2.830667,0.477333c-0.512,0 -0.96,-0.150667 -1.341333,-0.453333c-0.385333,-0.305333 -0.577333,-0.824 -0.577333,-1.56c0,-0.64 0.288,-1.584 0.862667,-2.830667c0.577333,-1.248 1.424,-2.784 2.542667,-4.608c-0.382667,0.032 -0.854667,0.072 -1.413333,0.12c-0.562667,0.050667 -0.888,0.072 -0.984,0.072c-0.161333,0 -0.241333,-0.064 -0.241333,-0.192c0.128,-0.221333 0.337333,-0.445333 0.625333,-0.669333l2.446667,-0.048c0.286667,-0.481333 0.606667,-1.016 0.958667,-1.608c0.352,-0.593333 0.704,-1.184 1.054667,-1.778667c0.354667,-0.588 0.714667,-1.164 1.081333,-1.725333c0.366667,-0.558667 0.696,-1.078667 0.984,-1.558667c0.353333,-0.16 0.84,-0.368 1.464,-0.622667c0.624,-0.257333 1.176,-0.465333 1.654667,-0.626667c0.064,0 0.112,0.042667 0.144,0.122667c0.032,0.077333 -0.017333,0.152 -0.144,0.216" id="path86"/>
   <path fill="#FFFFFF" fill-rule="nonzero" d="m578.905327,359.820006c-0.096,0.161333 -0.177333,0.176 -0.24,0.048c-0.193333,-0.417333 -0.592,-0.622667 -1.2,-0.622667c-0.449333,0 -0.894667,0.129333 -1.344,0.382667c-0.446667,0.258667 -0.670667,0.642667 -0.670667,1.152c0,0.256 0.078667,0.513333 0.24,0.769333c0.158667,0.256 0.381333,0.590667 0.672,1.008c0.253333,0.382667 0.494667,0.765333 0.718667,1.150667c0.222667,0.384 0.336,0.784 0.336,1.197333c0,0.834667 -0.192,1.513333 -0.574667,2.041333c-0.385333,0.526667 -0.841333,0.950667 -1.369333,1.272c-0.526667,0.318667 -1.064,0.534667 -1.606667,0.648c-0.544,0.110667 -0.976,0.166667 -1.296,0.166667c-1.950667,0 -3.021333,-0.654667 -3.214667,-1.966667c0.16,-0.094667 0.344,-0.217333 0.553333,-0.361333c0.206667,-0.144 0.358667,-0.277333 0.456,-0.408c0.062667,0 0.109333,0.065333 0.142667,0.194667c0.158667,0.574667 0.462667,1.070667 0.912,1.485333c0.446667,0.416 0.974667,0.624 1.582667,0.624c0.256,0 0.56,-0.024 0.913333,-0.070667c0.352,-0.049333 0.678667,-0.162667 0.982667,-0.337333c0.302667,-0.174667 0.566667,-0.424 0.792,-0.744c0.222667,-0.318667 0.336,-0.749333 0.336,-1.296c0,-0.413333 -0.082667,-0.798667 -0.24,-1.149333c-0.161333,-0.352 -0.336,-0.672 -0.529333,-0.96c-0.190667,-0.32 -0.384,-0.641333 -0.576,-0.961333c-0.190667,-0.317333 -0.285333,-0.670667 -0.285333,-1.056c0,-0.382667 0.134667,-0.797333 0.406667,-1.246667c0.270667,-0.445333 0.614667,-0.854667 1.030667,-1.221333c0.416,-0.369333 0.872,-0.681333 1.368,-0.937333c0.494667,-0.257333 0.985333,-0.384 1.464,-0.384c0.512,0 0.768,0.16 0.768,0.481333c-0.097333,0.158667 -0.192,0.341333 -0.286667,0.550667c-0.097333,0.208 -0.177333,0.390667 -0.241333,0.550667" id="path88"/>
   <path fill="#FFFFFF" fill-rule="nonzero" d="m587.637327,359.149339c0,-0.416 -0.206667,-0.625333 -0.622667,-0.625333c-0.321333,0 -0.648,0.12 -0.982667,0.36c-0.338667,0.24 -0.665333,0.553333 -0.984,0.936c-0.32,0.384 -0.624,0.798667 -0.912,1.248c-0.288,0.448 -0.528,0.881333 -0.72,1.296c0.064,0.030667 0.177333,0.056 0.336,0.073333c0.16,0.014667 0.286667,0.021333 0.384,0.021333c0.925333,0 1.742667,-0.326667 2.446667,-0.981333c0.704,-0.656 1.054667,-1.432 1.054667,-2.328zm5.037333,3.744c-0.542667,0.668 -1.189333,1.365333 -1.942667,2.085333c-0.750667,0.718667 -1.565333,1.376 -2.446667,1.968c-0.88,0.593333 -1.789333,1.072 -2.732,1.44c-0.946667,0.366667 -1.882667,0.550667 -2.809333,0.550667c-1.504,0 -2.254667,-0.670667 -2.254667,-2.014667c0,-0.897333 0.230667,-1.862667 0.694667,-2.905333c0.465333,-1.037333 1.064,-1.997333 1.8,-2.877333c0.734667,-0.88 1.542667,-1.614667 2.424,-2.206667c0.878667,-0.593333 1.718667,-0.889333 2.518667,-0.889333c0.446667,0 0.758667,0.081333 0.936,0.24c0.174667,0.162667 0.262667,0.370667 0.262667,0.624c0,0.385333 -0.118667,0.801333 -0.358667,1.250667c-0.24,0.446667 -0.6,0.870667 -1.08,1.269333c-0.478667,0.401333 -1.088,0.737333 -1.824,1.009333c-0.737333,0.270667 -1.616,0.405333 -2.638667,0.405333c-0.161333,0.289333 -0.334667,0.745333 -0.529333,1.369333c-0.190667,0.625333 -0.286667,1.256 -0.286667,1.894667c0,1.310667 0.592,1.965333 1.776,1.965333c0.733333,0 1.494667,-0.174667 2.28,-0.525333c0.782667,-0.353333 1.54,-0.793333 2.278667,-1.32c0.734667,-0.529333 1.416,-1.104 2.038667,-1.728c0.624,-0.621333 1.144,-1.208 1.558667,-1.750667c0.064,-0.064 0.136,-0.078667 0.216,-0.048c0.08,0.033333 0.118667,0.096 0.118667,0.193333" id="path90"/>
   <path fill="#FFFFFF" fill-rule="nonzero" d="m625.97466,337.749339c0,0.478667 -0.016,0.801333 -0.048,0.958667c-0.032,0.161333 -0.094667,0.193333 -0.192,0.096c-0.161333,-0.16 -0.374667,-0.342667 -0.646667,-0.550667c-0.272,-0.208 -0.744,-0.310667 -1.416,-0.310667c-0.576,0 -1.104,0.030667 -1.584,0.094667c-0.48,0.064 -0.968,0.190667 -1.461333,0.385333c-0.497333,0.190667 -1.016,0.454667 -1.561333,0.789333c-0.544,0.337333 -1.152,0.792 -1.822667,1.366667c-0.961333,0.801333 -2,1.977333 -3.12,3.529333c-1.12,1.552 -2.246667,3.244 -3.382667,5.084c-1.136,1.84 -2.216,3.712 -3.24,5.613333c-1.022667,1.905333 -1.914667,3.608 -2.684,5.112c-0.258667,0.513333 -0.537333,1.112 -0.841333,1.8c-0.302667,0.686667 -0.574667,1.374667 -0.814667,2.062667c-0.24,0.688 -0.44,1.329333 -0.6,1.917333c-0.161333,0.593333 -0.24,1.033333 -0.24,1.32c0,0.865333 0.288,1.296 0.865333,1.296c0.349333,0 0.750667,-0.168 1.2,-0.504c0.445333,-0.336 0.878667,-0.816 1.294667,-1.438667c0.413333,-0.624 0.765333,-1.392 1.054667,-2.304c0.285333,-0.910667 0.430667,-1.944 0.430667,-3.093333c0,-0.384 -0.024,-0.696 -0.070667,-0.934667c-0.048,-0.241333 -0.105333,-0.442667 -0.169333,-0.601333c0,-0.192 0.094667,-0.384 0.289333,-0.574667c0.126667,-0.129333 0.285333,-0.281333 0.478667,-0.458667c0.193333,-0.174667 0.369333,-0.312 0.529333,-0.405333c0.097333,0 0.161333,0.032 0.190667,0.093333c0,0.641333 0.121333,1.177333 0.362667,1.608c0.237333,0.432 0.541333,0.785333 0.909333,1.057333c0.368,0.272 0.766667,0.472 1.2,0.598667c0.433333,0.128 0.838667,0.193333 1.224,0.193333c0.542667,0 1.133333,-0.090667 1.774667,-0.266667c0.638667,-0.172 1.294667,-0.469333 1.968,-0.886667c0.158667,-0.096 0.261333,-0.088 0.312,0.024c0.048,0.112 -0.009333,0.198667 -0.168,0.262667c-1.025333,0.546667 -1.96,0.945333 -2.808,1.202667c-0.849333,0.254667 -1.638667,0.382667 -2.374667,0.382667c-0.608,0 -1.16,-0.136 -1.654667,-0.408c-0.496,-0.270667 -0.874667,-0.582667 -1.128,-0.936c0,1.216 -0.201333,2.318667 -0.6,3.312c-0.401333,0.990667 -0.888,1.830667 -1.464,2.517333c-0.576,0.690667 -1.2,1.224 -1.870667,1.609333c-0.672,0.382667 -1.28,0.574667 -1.824,0.574667c-0.510667,0 -0.937333,-0.16 -1.270667,-0.481333c-0.334667,-0.317333 -0.502667,-0.814667 -0.502667,-1.484c0,-0.513333 0.110667,-1.136 0.333333,-1.873333c0.224,-0.734667 0.502667,-1.478667 0.838667,-2.230667c0.336,-0.752 0.681333,-1.473333 1.034667,-2.16c0.350667,-0.688 0.637333,-1.238667 0.86,-1.654667c0.865333,-1.6 1.793333,-3.230667 2.784,-4.892c0.992,-1.664 2.04,-3.313333 3.144,-4.945333c1.104,-1.632 2.270667,-3.205333 3.501333,-4.725333c1.230667,-1.518667 2.536,-2.918667 3.912,-4.198667c0.384,-0.352 0.872,-0.768 1.464,-1.248c0.590667,-0.48 1.224,-0.934667 1.896,-1.366667c0.670667,-0.432 1.349333,-0.792 2.037333,-1.078667c0.688,-0.289333 1.321333,-0.433333 1.896,-0.433333c0.577333,0 1.014667,0.154667 1.32,0.456c0.305333,0.304 0.454667,0.678667 0.454667,1.128" id="path92"/>
   <path fill="#FFFFFF" fill-rule="nonzero" d="m622.90266,358.813339c-0.190667,0.224 -0.390667,0.497333 -0.598667,0.814667c-0.209333,0.321333 -0.344,0.561333 -0.408,0.72c-0.030667,0.097333 -0.096,0.146667 -0.192,0.146667c-0.033333,0 -0.08,-0.049333 -0.142667,-0.146667c-0.065333,-0.094667 -0.154667,-0.198667 -0.265333,-0.309333c-0.112,-0.113333 -0.262667,-0.218667 -0.454667,-0.314667c-0.192,-0.096 -0.464,-0.144 -0.814667,-0.144c-0.416,0 -0.881333,0.144 -1.392,0.433333c-0.513333,0.286667 -0.962667,0.605333 -1.345333,0.96c-0.606667,0.510667 -1.144,1.070667 -1.606667,1.678667c-0.462667,0.606667 -0.905333,1.241333 -1.318667,1.896c-0.417333,0.656 -0.816,1.326667 -1.2,2.013333c-0.384,0.688 -0.801333,1.385333 -1.248,2.088c-0.032,0.096 -0.128,0.142667 -0.288,0.142667c-0.065333,0 -0.198667,-0.094667 -0.406667,-0.288c-0.209333,-0.190667 -0.312,-0.333333 -0.312,-0.432c0,-0.189333 0.109333,-0.48 0.334667,-0.862667c0.513333,-0.894667 1.033333,-1.798667 1.561333,-2.710667c0.528,-0.910667 1.024,-1.765333 1.486667,-2.565333c0.462667,-0.801333 0.869333,-1.497333 1.222667,-2.089333c0.353333,-0.590667 0.593333,-1.030667 0.718667,-1.32c0.158667,-0.286667 0.272,-0.432 0.336,-0.432c0.064,0 0.225333,0.081333 0.481333,0.241333c0.256,0.162667 0.382667,0.385333 0.382667,0.670667c0,0.097333 -0.056,0.258667 -0.166667,0.48c-0.112,0.225333 -0.24,0.456 -0.384,0.694667c-0.145333,0.241333 -0.281333,0.473333 -0.408,0.697333c-0.129333,0.224 -0.224,0.384 -0.288,0.48c-0.097333,0.16 -0.113333,0.241333 -0.048,0.241333c0.064,0 0.142667,-0.048 0.24,-0.145333c0.318667,-0.32 0.712,-0.672 1.176,-1.056c0.461333,-0.382667 0.952,-0.742667 1.462667,-1.078667c0.513333,-0.336 1.017333,-0.616 1.512,-0.84c0.494667,-0.222667 0.934667,-0.336 1.318667,-0.336c0.289333,0 0.536,0.073333 0.744,0.217333c0.208,0.144 0.310667,0.296 0.310667,0.454667" id="path94"/>
   <path fill="#FFFFFF" fill-rule="nonzero" d="m630.15066,358.382673c-1.088,0 -2.129333,0.382667 -3.12,1.149333c-0.992,0.768 -1.869333,1.674667 -2.64,2.712c-0.765333,1.038667 -1.382667,2.070667 -1.845333,3.093333c-0.465333,1.025333 -0.696,1.776 -0.696,2.254667c0,0.257333 0.094667,0.385333 0.288,0.385333c0.193333,0 0.486667,-0.128 0.888,-0.385333c0.398667,-0.254667 0.856,-0.598667 1.365333,-1.030667c0.513333,-0.430667 1.033333,-0.934667 1.558667,-1.509333c0.529333,-0.576 1.017333,-1.2 1.466667,-1.872c0.510667,-0.768 1.008,-1.582667 1.488,-2.448c0.48,-0.864 0.910667,-1.630667 1.296,-2.302667l-0.049333,-0.046667zm7.484,3.644c-0.734667,0.897333 -1.542667,1.801333 -2.422667,2.712c-0.88,0.913333 -1.768,1.734667 -2.662667,2.470667c-0.894667,0.737333 -1.784,1.328 -2.664,1.776c-0.88,0.449333 -1.686667,0.672 -2.421333,0.672c-0.641333,0 -1.088,-0.158667 -1.344,-0.48c-0.256,-0.321333 -0.385333,-0.721333 -0.385333,-1.2c0,-0.448 0.136,-1.048 0.409333,-1.8c0.270667,-0.752 0.678667,-1.56 1.222667,-2.421333c-0.417333,0.544 -0.897333,1.118667 -1.44,1.728c-0.544,0.605333 -1.101333,1.157333 -1.68,1.653333c-0.574667,0.497333 -1.150667,0.913333 -1.725333,1.249333c-0.577333,0.336 -1.088,0.504 -1.536,0.504c-0.673333,0 -1.009333,-0.338667 -1.009333,-1.008c0,-0.737333 0.290667,-1.662667 0.865333,-2.784c0.574667,-1.118667 1.350667,-2.2 2.328,-3.238667c0.974667,-1.038667 2.088,-1.934667 3.334667,-2.686667c1.246667,-0.750667 2.542667,-1.129333 3.885333,-1.129333c0.158667,-0.317333 0.302667,-0.541333 0.430667,-0.669333c0.128,-0.129333 0.257333,-0.224 0.385333,-0.290667l1.344,-0.382667l0.096,0.048c-0.16,0.16 -0.312,0.361333 -0.456,0.598667c-0.144,0.24 -0.297333,0.490667 -0.457333,0.744c0.16,0 0.401333,0.02 0.721333,0.049333c0.32,0.032 0.557333,0.064 0.718667,0.096c0.16,0.064 0.241333,0.145333 0.241333,0.24c0,0.094667 -0.049333,0.144 -0.145333,0.144c-0.189333,-0.062667 -0.48,-0.112 -0.862667,-0.144c-0.385333,-0.030667 -0.673333,-0.048 -0.864,-0.048c-1.472,2.589333 -2.550667,4.646667 -3.237333,6.166667c-0.690667,1.518667 -1.033333,2.648 -1.033333,3.381333c0,0.289333 0.072,0.526667 0.216,0.72c0.144,0.193333 0.44,0.288 0.888,0.288c0.512,0 1.12,-0.185333 1.825333,-0.552c0.701333,-0.369333 1.454667,-0.878667 2.253333,-1.536c0.798667,-0.653333 1.622667,-1.413333 2.469333,-2.28c0.848,-0.861333 1.657333,-1.774667 2.424,-2.732c0.064,-0.097333 0.128,-0.121333 0.192,-0.073333c0.064,0.048 0.096,0.121333 0.096,0.214667" id="path96"/>
   <path fill="#FFFFFF" fill-rule="nonzero" d="m659.083993,362.842672c-0.545333,0.769333 -1.186667,1.577333 -1.92,2.424c-0.736,0.848 -1.505333,1.624 -2.304,2.325333c-0.801333,0.705333 -1.616,1.289333 -2.446667,1.753333c-0.832,0.464 -1.614667,0.696 -2.353333,0.696c-0.541333,0 -0.965333,-0.146667 -1.269333,-0.430667c-0.305333,-0.289333 -0.456,-0.737333 -0.456,-1.344c0,-0.289333 0.04,-0.616 0.12,-0.985333c0.078667,-0.368 0.214667,-0.776 0.406667,-1.222667c-0.192,0.224 -0.406667,0.489333 -0.646667,0.790667c-0.238667,0.305333 -0.512,0.594667 -0.816,0.865333c-0.304,0.272 -0.64,0.494667 -1.008,0.672c-0.366667,0.174667 -0.776,0.262667 -1.224,0.262667c-0.352,0 -0.637333,-0.104 -0.862667,-0.312c-0.224,-0.208 -0.336,-0.534667 -0.336,-0.985333c0,-0.253333 0.057333,-0.573333 0.168,-0.958667c0.110667,-0.382667 0.318667,-0.904 0.625333,-1.556c0.302667,-0.658667 0.718667,-1.473333 1.245333,-2.448c0.530667,-0.977333 1.209333,-2.185333 2.04,-3.624c0.16,-0.318667 0.302667,-0.481333 0.432,-0.481333c0.225333,0 0.457333,0.138667 0.696,0.410667c0.24,0.270667 0.36,0.454667 0.36,0.550667c0,0.093333 -0.097333,0.286667 -0.288,0.574667c-0.513333,0.769333 -0.992,1.536 -1.441333,2.302667c-0.445333,0.770667 -0.838667,1.489333 -1.173333,2.16c-0.336,0.672 -0.608,1.272 -0.816,1.8c-0.208,0.528 -0.313333,0.934667 -0.313333,1.222667c0,0.48 0.176,0.72 0.529333,0.72c0.317333,0 0.757333,-0.245333 1.318667,-0.744c0.558667,-0.494667 1.225333,-1.333333 1.990667,-2.518667c0.289333,-0.510667 0.584,-1.046667 0.889333,-1.606667c0.304,-0.558667 0.6,-1.096 0.886667,-1.606667c0.286667,-0.513333 0.558667,-0.985333 0.817333,-1.417333c0.254667,-0.432 0.446667,-0.757333 0.574667,-0.982667c0.158667,-0.222667 0.285333,-0.336 0.382667,-0.336c0.129333,0 0.273333,0.136 0.433333,0.406667c0.16,0.274667 0.24,0.6 0.24,0.984c0,0.257333 -0.065333,0.498667 -0.193333,0.72c-0.382667,0.576 -0.790667,1.145333 -1.222667,1.702667c-0.432,0.561333 -0.832,1.145333 -1.2,1.752c-0.369333,0.609333 -0.68,1.248 -0.936,1.918667c-0.254667,0.674667 -0.382667,1.408 -0.382667,2.206667c0,0.705333 0.336,1.057333 1.006667,1.057333c0.448,0 0.984,-0.169333 1.608,-0.502667c0.624,-0.336 1.304,-0.809333 2.038667,-1.417333c0.736,-0.605333 1.493333,-1.344 2.28,-2.206667c0.782667,-0.862667 1.526667,-1.806667 2.230667,-2.830667c0.194667,-0.064 0.289333,0.016 0.289333,0.238667" id="path98"/>
   <path fill="#FFFFFF" fill-rule="nonzero" d="m667.911993,351.089339c-0.257333,0.064 -0.545333,0.184 -0.864,0.358667c-0.321333,0.176 -0.561333,0.392 -0.72,0.646667c-0.737333,1.022667 -1.449333,2.096 -2.136,3.216c-0.690667,1.12 -1.353333,2.24 -1.992,3.36l5.952,0c0.093333,0.062667 0.141333,0.128 0.141333,0.192c0,0.064 -0.032,0.112 -0.096,0.141333c-0.254667,0 -0.638667,0.009333 -1.149333,0.024c-0.512,0.017333 -1.072,0.042667 -1.68,0.073333c-0.608,0.033333 -1.230667,0.065333 -1.872,0.097333c-0.638667,0.030667 -1.198667,0.064 -1.678667,0.094667c-0.894667,1.598667 -1.582667,2.96 -2.062667,4.078667c-0.48,1.12 -0.72,2.096 -0.72,2.925333c0,1.152 0.525333,1.728 1.582667,1.728c0.510667,0 1.096,-0.136 1.750667,-0.408c0.656,-0.272 1.353333,-0.630667 2.085333,-1.08c0.098667,-0.094667 0.194667,-0.089333 0.290667,0.024c0.094667,0.112 0.064,0.202667 -0.096,0.265333c-1.089333,0.702667 -2.094667,1.217333 -3.022667,1.536c-0.929333,0.316 -1.870667,0.477333 -2.830667,0.477333c-0.513333,0 -0.961333,-0.150667 -1.344,-0.453333c-0.385333,-0.305333 -0.576,-0.824 -0.576,-1.56c0,-0.64 0.288,-1.584 0.862667,-2.830667c0.577333,-1.248 1.425333,-2.784 2.544,-4.608c-0.382667,0.032 -0.854667,0.072 -1.416,0.12c-0.561333,0.050667 -0.886667,0.072 -0.984,0.072c-0.158667,0 -0.24,-0.064 -0.24,-0.192c0.128,-0.221333 0.337333,-0.445333 0.625333,-0.669333l2.448,-0.048c0.285333,-0.481333 0.608,-1.016 0.957333,-1.608c0.352,-0.593333 0.705333,-1.184 1.056,-1.778667c0.350667,-0.588 0.713333,-1.164 1.08,-1.725333c0.368,-0.558667 0.694667,-1.078667 0.984,-1.558667c0.350667,-0.16 0.84,-0.368 1.461333,-0.622667c0.625333,-0.257333 1.177333,-0.465333 1.658667,-0.626667c0.062667,0 0.110667,0.042667 0.141333,0.122667c0.033333,0.077333 -0.013333,0.152 -0.141333,0.216" id="path100"/>
  </g>
 </g>
</svg>