<svg width="187.00000000000003" height="217.00000000000003" xmlns="http://www.w3.org/2000/svg">
 <metadata id="metadata8">image/svg+xml</metadata>

 <g>
  <title>background</title>
  <rect fill="none" id="canvas_background" height="219" width="189" y="-1" x="-1"/>
 </g>
 <g>
  <title>Layer 1</title>
  <path fill="#fff" fill-rule="nonzero" d="m78.34302,145.280414c-6.041333,0 -11.609333,-0.593333 -16.701333,-1.784c-5.096,-1.185333 -9.509333,-3.130667 -13.232,-5.836c-3.730667,-2.701333 -6.668,-6.373333 -8.818667,-11.024c-2.154667,-4.646667 -3.305333,-10.426667 -3.458667,-17.346666c-0.144,-6.484 0.884,-13.456 3.093333,-20.913333c2.205333,-7.458667 5.058667,-14.86 8.565333,-22.210666c3.501333,-7.346667 7.392,-14.266667 11.670667,-20.750666c4.274667,-6.485333 8.412,-11.997333 12.410667,-16.537333c7.356,-8.642667 15.516,-15.182667 24.474666,-19.617333c8.961333,-4.426667 19.152,-6.645333 30.586666,-6.645333c6.254667,0 11.985333,0.704 17.196,2.106667c5.205333,1.409333 9.673333,3.568 13.406667,6.485333c3.729333,2.918667 6.726667,6.702667 8.986667,11.348c2.257333,4.650667 3.465333,10.325333 3.613333,17.022666c0.184,8.282667 -0.910667,16.758666 -3.270667,25.422666c-0.237333,-0.249333 -0.56,-0.454667 -0.962667,-0.614667c-5.441333,0 -11.586667,0.537333 -18.441333,1.606667c-6.854667,1.073333 -12.566667,2.464 -17.136,4.176c-1.090667,0.432 -2.121333,0.913333 -3.1,1.445333c-0.981333,0.537333 -1.689333,1.34 -2.122667,2.409333c-4.136,6.854667 -8.705333,14.725333 -13.708,23.608c-4.137333,7.344 -8.312,14.84 -12.518667,22.473333c-0.449333,-1.404 -1.077333,-2.869333 -1.885333,-4.396c-1.090667,-2.045333 -2.561333,-4.306667 -4.408,-6.785333c-1.849333,-2.474667 -4.190667,-5.544 -7.016,-9.209333c-3.704,-4.734667 -7.073333,-9.905333 -10.118667,-15.509333c-3.049333,-5.598667 -4.569333,-11.632 -4.569333,-18.093333c0,-8.402667 2.717333,-15.130667 8.16,-20.194666c5.436,-5.058667 12.510667,-7.593333 21.214666,-7.593333c8.268,0 14.305333,1.726667 18.114666,5.169333c3.806667,3.448 5.713333,7.109333 5.713333,10.985333c0,1.938667 -0.326667,3.554667 -0.978667,4.848c0.652,1.08 1.413333,1.402667 2.285333,0.968c0.652,-2.368 1.574667,-5.276 2.773333,-8.722667c1.193333,-3.444 2.229333,-6.246667 3.1,-8.401333c0,-1.504 -0.544,-3.014667 -1.632,-4.524c-2.610667,-2.797333 -5.548,-4.685333 -8.813333,-5.654667c-3.262667,-0.969333 -6.638667,-1.454667 -10.117333,-1.454667c-5.221333,0 -9.954667,0.646667 -14.196,1.938667c-4.245333,1.293333 -7.948,2.802667 -11.1,4.524c-3.157333,1.728 -5.874667,3.610667 -8.158667,5.653333c-2.285333,2.050667 -4.08,3.828 -5.386667,5.332c-3.701333,4.312 -6.802667,9.264 -9.301333,14.864c-2.504,5.604 -3.754667,11.202667 -3.754667,16.802666c0,5.602667 1.144,10.554667 3.428,14.862667c2.285333,4.310667 5.6,9.264 9.956,14.862667c5.002667,6.250667 8.373333,11.258667 10.116,15.025333c1.74,3.770667 2.612,7.486667 2.612,11.146667c0,3.004 -0.388,5.837333 -1.130667,8.516c-1.797333,0.138667 -3.609333,0.216 -5.44,0.216zm65.210666,-35.504c-8.404,10.269333 -18.188,18.754666 -29.362666,25.453333c-3.988,2.392 -8.077333,4.349333 -12.264,5.886667c1.202667,-2.078667 2.405333,-4.158667 3.593333,-6.224c3.264,-5.670667 6.365333,-11.025333 9.301333,-16.06c2.937333,-5.029333 5.493333,-9.365333 7.670667,-13.009333c2.392,-4.281333 5.110667,-8.722667 8.16,-13.330667c3.044,-4.601333 5.981333,-8.833333 8.813333,-12.688c2.390667,-2.996 4.674667,-5.781333 6.853333,-8.350667c2.172,-2.570667 5.329333,-3.856 9.465333,-3.856c2.393333,0 4.406667,0.110667 6.038667,0.321333c1.449333,0.192 2.761333,0.472 3.953333,0.829333c-0.724,2.314667 -1.534667,4.641333 -2.437333,6.981333c-4.794667,12.433333 -11.390667,23.781333 -19.785333,34.046666zm-90.257332,90.802666c5.876,-3.210667 11.474667,-7.225333 16.809333,-12.044c5.329333,-4.817333 10.608,-11.508 15.830667,-20.076c3.044,-5.14 6.252,-10.6 9.628,-16.381333c1.086667,-1.866667 2.162667,-3.717333 3.238667,-5.572c7.672,-1.485333 15.150667,-3.944 22.432,-7.386667c12.805333,-6.048 24.002666,-14.048 33.598666,-23.993333c9.589333,-9.94 17.262666,-21.288 23.021333,-34.045333c5.753333,-12.752 8.589333,-25.826666 8.509333,-39.232c0.029333,-8.212 -1.842667,-14.966667 -5.626667,-20.266666c-3.788,-5.293333 -8.572,-9.508 -14.354667,-12.644c-5.786667,-3.132 -12.2,-5.350667 -19.236,-6.648c-7.04,-1.296 -13.902667,-1.945333 -20.585333,-1.945333c-12.294667,0 -24.221333,1.945333 -35.781333,5.836c-11.56,3.892 -21.886666,10.052 -30.972,18.482666c-4.650667,4.326667 -9.382667,9.726667 -14.197333,16.212c-4.82,6.484 -9.084,13.405333 -12.804,20.750666c-3.718667,7.350667 -6.736,14.865333 -9.042667,22.536c-2.310667,7.674667 -3.386667,14.970667 -3.233333,21.885333c0.182667,8.217333 1.896,15.026667 5.145333,20.426666c3.244,5.405333 7.545333,9.728 12.905333,12.970667c5.354667,3.241333 11.658667,5.512 18.914666,6.809333c7.253333,1.296 15.086667,1.945333 23.498666,1.945333c0.574667,0 1.145333,-0.013333 1.717333,-0.022667c-1.154667,2.836 -2.742667,5.484 -4.816,7.92c-4.681333,5.493333 -10.393333,9.749333 -17.136,12.764c-3.264,1.509333 -6.909333,2.64 -10.933333,3.392c-4.029333,0.757333 -7.997333,1.130667 -11.914667,1.130667c-10.444,0 -18.169333,-2.312 -23.173333,-6.946667c-5.008,-4.629333 -7.506667,-9.961333 -7.506667,-15.994667c0,-1.937333 0.326667,-3.876 0.98,-5.816c0,-1.074667 -0.328,-1.614667 -0.98,-1.614667c-0.653333,0 -0.98,0.217333 -0.98,0.645333c-0.870667,3.02 -1.906667,6.841333 -3.1,11.472c-1.198667,4.634667 -2.233333,8.778667 -3.101333,12.438667c0.214667,0.646667 0.76,1.242667 1.633333,1.777333c0.866667,0.54 1.845333,1.130667 2.937333,1.777333c4.130667,1.938667 8.649333,3.337333 13.545333,4.2c4.894667,0.858667 9.842667,1.293333 14.850667,1.293333c11.964,0 22.846666,-2.156 32.638666,-6.462667c2.356,-1.036 4.729333,-2.290667 7.122667,-3.754667c-2.198667,3.732 -4.341333,7.316 -6.426667,10.734667c-4.569333,7.498667 -8.436,13.118667 -11.586667,16.862666c-3.157333,3.749333 -6.477333,6.696 -9.954667,8.833333c-2.178667,1.285333 -4.789333,2.144 -7.834667,2.570667c-3.049333,0.432 -6.526667,0.642667 -10.444,0.642667c-1.744,0 -2.612,0.641333 -2.612,1.926667c0,0.644 0.326667,1.334667 0.98,2.089333c0.652,0.746667 1.412,1.229333 2.285333,1.444c2.825333,-0.857333 6.088,-1.66 9.790667,-2.408c3.697333,-0.749333 8.486667,-1.445333 14.361333,-2.089333c5.876,-0.641333 13.108,-1.173333 21.705333,-1.605333c8.593333,-0.426667 19.201333,-0.642667 31.824,-0.642667c3.697333,0 7.614667,0.056 11.750667,0.16c4.130667,0.112 8.373333,0.322667 12.729333,0.644c4.349333,0.321333 8.592,0.802667 12.730667,1.444c4.128,0.644 7.833333,1.608 11.096,2.892c1.305333,0.426667 2.121333,1.174667 2.448,2.249333c0.326667,1.068 0.489333,2.138667 0.489333,3.212c0,0.852 0.214667,1.284 0.653333,1.284c0.866667,-1.716 1.794667,-4.126667 2.773333,-7.226667c0.98,-3.104 1.469333,-5.189333 1.469333,-6.264c0,-2.138667 -1.745333,-3.64 -5.222667,-4.497333c-0.872,-0.210667 -2.177333,-0.372 -3.917333,-0.482667c-1.742667,-0.105333 -3.589333,-0.210667 -5.548,-0.321333c-1.958667,-0.105333 -3.916,-0.161333 -5.874667,-0.161333l-4.244,0c-2.610667,0 -7.178667,0.216 -13.708,0.644c-6.528,0.430667 -13.870667,0.912 -22.030666,1.446667c-8.161333,0.536 -16.484,1.122667 -24.970666,1.765333c-8.486667,0.641333 -15.778667,1.284 -21.868,1.928c-1.958667,0 -2.829333,-0.321333 -2.610667,-0.964c0.214667,-0.642667 0.978667,-1.284 2.284,-1.929333" id="path14"/>
 </g>
</svg>